<svg width="530" height="571" viewBox="0 0 530 571" fill="none" xmlns="http://www.w3.org/2000/svg">
<path d="M102.304 193.26C101.787 193.533 101.255 193.82 100.738 194.078C89.1459 199.993 76.9791 202.863 65.4875 202.964C54.5849 203.064 44.2711 200.667 35.6237 196.002C27.5652 191.638 20.9431 185.308 16.6338 177.169C20.1531 182.394 25.037 186.528 30.8978 189.514C39.2148 193.763 49.4998 195.686 60.5749 195.126C71.9659 194.552 84.1901 191.365 95.9978 185.336C96.7591 184.949 97.5204 184.547 98.2674 184.145C109.127 178.245 118.148 170.637 124.842 162.268C132.211 153.067 136.779 142.933 137.856 133.143C138.646 125.937 137.554 118.932 134.322 112.601C134.092 112.156 133.863 111.711 133.618 111.281C134.509 112.644 135.342 114.066 136.104 115.544C140.24 123.626 141.634 132.526 140.643 141.454C139.508 151.732 135.213 162.053 128.275 171.269C121.782 179.896 113.005 187.547 102.318 193.26H102.304Z" fill="url(#paint0_radial_66_24)"/>
<path d="M98.2659 184.145C97.519 184.547 96.7576 184.949 95.9963 185.336C84.1887 191.365 71.9645 194.566 60.5734 195.126C49.4984 195.686 39.2134 193.762 30.8963 189.513C23.7715 185.882 18.0975 180.556 14.5639 173.651C13.6876 171.958 12.9838 170.206 12.4235 168.412C10.0678 160.919 10.312 152.751 12.8114 144.583C15.5406 135.655 20.9561 126.755 28.5836 118.788C35.0189 112.056 43.0343 105.984 52.3425 101.175C52.5293 101.074 52.7017 100.988 52.9028 100.888C63.2452 95.6196 73.9037 92.5046 84.045 91.428C93.7842 90.3945 103.049 91.2414 111.065 93.8396C120.086 96.768 127.541 101.936 132.353 109.185C133.071 110.261 133.732 111.395 134.335 112.558C137.567 118.888 138.659 125.908 137.869 133.1C136.792 142.889 132.238 153.024 124.855 162.225C118.161 170.594 109.14 178.202 98.2803 184.102L98.2659 184.145Z" fill="url(#paint1_radial_66_24)"/>
<path d="M87.7091 169.087C65.9038 180.212 41.8863 176.81 34.0576 161.493C26.229 146.177 37.5769 124.745 59.3823 113.62C81.1876 102.496 105.205 105.898 113.034 121.214C120.848 136.53 109.514 157.962 87.7091 169.087V169.087Z" fill="url(#paint2_radial_66_24)"/>
<path d="M101.398 105.381C95.509 103.328 88.6858 102.582 81.4749 103.242L84.0174 91.457C93.7565 90.4234 103.022 91.2703 111.037 93.8685L101.398 105.381V105.381Z" fill="url(#paint3_linear_66_24)"/>
<path d="M39.4443 123.826L28.5703 118.802C35.0056 112.07 43.021 105.998 52.3292 101.189L57.0839 110.606C50.1602 114.223 44.1989 118.774 39.4443 123.826V123.826Z" fill="url(#paint4_linear_66_24)"/>
<path d="M28.1393 161.235L12.4101 168.426C10.0543 160.933 10.2985 152.765 12.798 144.598L27.9956 142.875C26.1282 149.177 26.0708 155.507 28.1393 161.22V161.235Z" fill="url(#paint5_linear_66_24)"/>
<path d="M60.5746 195.126C49.4995 195.686 39.2145 193.763 30.8975 189.514L42.3604 176.307C48.5946 179.279 56.2077 180.542 64.3668 180.011L60.5746 195.126V195.126Z" fill="url(#paint6_linear_66_24)"/>
<path d="M98.2673 184.145L91.4585 171.872C99.3303 167.565 105.895 162.039 110.793 155.967L124.842 162.268C118.148 170.637 109.127 178.245 98.2673 184.145V184.145Z" fill="url(#paint7_linear_66_24)"/>
<path d="M137.842 133.143L120.446 134.765C121.136 129.253 120.36 123.87 117.875 119.032C117.645 118.573 117.401 118.142 117.142 117.697L132.326 109.228C133.044 110.305 133.705 111.439 134.308 112.601C137.54 118.932 138.632 125.951 137.842 133.143V133.143Z" fill="url(#paint8_linear_66_24)"/>
<path d="M41.082 163.546L43.5096 161.436C45.3195 163.517 47.6466 165.225 50.4189 166.503L49.0686 169.417C45.8797 167.953 43.1936 165.972 41.082 163.531V163.546ZM36.5284 154.66C35.7958 151.531 35.7671 148.186 36.4422 144.741L39.6024 145.358C39.0135 148.344 39.0422 151.229 39.6742 153.914L36.5428 154.646L36.5284 154.66ZM58.463 172.058L58.8652 168.871C61.7094 169.23 64.7116 169.259 67.8 168.929L68.1304 172.13C64.7978 172.474 61.5514 172.46 58.463 172.058V172.058ZM39.8179 135.597C41.3118 132.87 43.1936 130.214 45.4344 127.731L47.8333 129.884C45.7648 132.195 44.0123 134.635 42.6477 137.147L39.8323 135.611L39.8179 135.597ZM77.5391 170.192L76.5911 167.12C79.4209 166.244 82.2363 165.11 84.9512 163.718L84.9943 163.689L86.4595 166.546L86.402 166.574C83.5291 168.039 80.5413 169.244 77.5248 170.178L77.5391 170.192ZM54.4553 123.812L52.5161 121.242C55.0299 119.348 57.7735 117.639 60.6464 116.161L62.1116 119.018C59.3967 120.396 56.8255 122.003 54.4553 123.798V123.812ZM94.6042 161.493L92.665 158.938C92.9235 158.737 93.1965 158.536 93.455 158.335C95.5953 156.655 97.5633 154.818 99.3014 152.866L101.7 155.005C99.8329 157.086 97.7356 159.053 95.4373 160.847C95.1644 161.062 94.8915 161.278 94.6042 161.493ZM70.4718 115.644L69.5237 112.572C72.6552 111.611 75.8154 110.965 78.9325 110.634L79.2772 113.835C76.3612 114.151 73.4021 114.754 70.4718 115.659V115.644ZM104.473 145.602C105.967 142.861 106.986 140.09 107.518 137.363L110.678 137.98C110.089 141.038 108.954 144.124 107.302 147.138L104.487 145.602H104.473ZM88.1976 113.879L88.5998 110.692C92.0186 111.122 95.1931 112.012 98.0086 113.319L96.6583 116.233C94.1301 115.07 91.286 114.28 88.1832 113.893L88.1976 113.879ZM107.432 128.807C107.101 127.429 106.613 126.094 105.981 124.845C105.334 123.568 104.516 122.362 103.582 121.286L106.01 119.175C107.116 120.439 108.092 121.874 108.854 123.381C109.615 124.86 110.19 126.439 110.563 128.061L107.432 128.807V128.807Z" fill="#F5F5F5"/>
<path d="M83.8164 161.464C68.0154 169.517 50.5913 167.063 44.9316 155.952C39.2577 144.856 47.4885 129.31 63.2895 121.257C79.1048 113.19 96.5146 115.659 102.174 126.769C107.848 137.865 99.6174 153.397 83.8164 161.464V161.464Z" fill="url(#paint9_linear_66_24)"/>
<path d="M90.7543 117.755C89.2029 118.372 87.6659 119.061 86.1289 119.836C68.0871 129.037 58.6927 146.794 65.1567 159.455C66.4352 161.967 68.2451 164.092 70.4572 165.8C59.1811 167.465 49.011 163.948 44.9315 155.952C39.2575 144.856 47.4884 129.31 63.3037 121.257C72.8418 116.377 82.9687 115.357 90.7543 117.755V117.755Z" fill="url(#paint10_linear_66_24)"/>
<path d="M83.8164 161.464C68.9491 169.044 52.6741 167.321 46.0664 157.861C53.2774 166 68.59 167.149 82.6385 159.986C98.4538 151.918 106.67 136.387 101.011 125.291C100.666 124.63 100.292 123.984 99.8615 123.381C100.766 124.401 101.542 125.535 102.174 126.769C107.834 137.865 99.6173 153.397 83.8164 161.464V161.464Z" fill="black"/>
<path d="M140.628 141.44L137.855 133.143C138.646 125.937 137.554 118.932 134.322 112.601C134.092 112.156 133.862 111.711 133.618 111.281C134.509 112.644 135.342 114.066 136.103 115.544C140.24 123.626 141.633 132.526 140.642 141.454L140.628 141.44Z" fill="url(#paint11_linear_66_24)"/>
<path d="M102.304 193.26L98.2671 184.145C109.127 178.245 118.148 170.637 124.841 162.269L128.26 171.255C121.767 179.882 112.991 187.533 102.304 193.246V193.26Z" fill="url(#paint12_linear_66_24)"/>
<path d="M65.4729 202.964C54.5702 203.064 44.2565 200.667 35.609 196.002L30.8975 189.514C39.2145 193.763 49.4995 195.686 60.5746 195.126L65.4729 202.964V202.964Z" fill="url(#paint13_linear_66_24)"/>
<path d="M137.841 133.143C137.841 133.143 137.77 133.674 137.655 134.665C137.597 135.167 137.468 135.77 137.353 136.488C137.296 136.846 137.209 137.234 137.123 137.636C137.023 138.038 136.951 138.483 136.836 138.928C136.405 140.751 135.759 142.933 134.811 145.373C133.877 147.813 132.641 150.498 131.047 153.297C129.453 156.096 127.513 158.996 125.244 161.895C124.971 162.269 124.655 162.627 124.368 162.972C124.066 163.331 123.764 163.69 123.463 164.049C122.859 164.766 122.256 165.513 121.581 166.202C120.92 166.905 120.245 167.623 119.57 168.341C118.866 169.03 118.148 169.719 117.429 170.422C117.056 170.766 116.711 171.125 116.338 171.47C115.95 171.8 115.576 172.145 115.189 172.475C114.801 172.819 114.427 173.149 114.025 173.48C113.637 173.81 113.264 174.169 112.847 174.484C112.028 175.13 111.224 175.776 110.391 176.422L109.773 176.91L109.127 177.37C108.696 177.671 108.279 177.987 107.834 178.288C106.139 179.552 104.315 180.657 102.519 181.82C101.6 182.379 100.666 182.896 99.7467 183.442L98.3534 184.246L96.9313 185.006L96.2274 185.38C95.9832 185.509 95.739 185.609 95.4948 185.738L94.044 186.427L92.5932 187.116C92.1048 187.346 91.6308 187.59 91.128 187.777C89.1457 188.581 87.2065 189.471 85.1955 190.131C81.2452 191.624 77.2088 192.657 73.2873 193.547C72.2961 193.734 71.3193 193.921 70.3426 194.093C69.8542 194.179 69.3801 194.294 68.8917 194.351C68.4034 194.409 67.9293 194.48 67.4409 194.538C66.4785 194.667 65.5304 194.811 64.5968 194.897C63.6487 194.968 62.715 195.04 61.7957 195.112C58.1184 195.385 54.6278 195.327 51.4101 195.069C48.1925 194.811 45.2765 194.351 42.734 193.763C40.1914 193.174 38.008 192.499 36.2556 191.839C35.8103 191.696 35.3937 191.523 35.0058 191.365C34.618 191.208 34.2589 191.064 33.9141 190.92C33.2534 190.619 32.6788 190.375 32.2335 190.16C31.3285 189.715 30.8545 189.485 30.8545 189.485C30.8545 189.485 31.3285 189.715 32.2335 190.145C32.6931 190.361 33.2534 190.59 33.9285 190.892C34.2589 191.035 34.6324 191.164 35.0202 191.322C35.408 191.48 35.8246 191.638 36.2699 191.782C38.0368 192.413 40.2058 193.074 42.7627 193.633C45.3052 194.193 48.2212 194.638 51.4245 194.882C54.6278 195.126 58.104 195.184 61.7813 194.882C62.7006 194.811 63.6343 194.739 64.568 194.653C65.5017 194.552 66.4498 194.409 67.4122 194.279C67.8862 194.208 68.3746 194.15 68.8486 194.078C69.337 194.021 69.8111 193.906 70.2995 193.82C71.2619 193.633 72.2387 193.447 73.2298 193.26C77.137 192.356 81.159 191.308 85.0949 189.815C87.0916 189.155 89.0308 188.265 90.9987 187.461C91.4871 187.26 91.9755 187.016 92.4496 186.786L93.9004 186.097L95.3512 185.408C95.581 185.293 95.8396 185.179 96.0694 185.064L96.7733 184.691L98.1954 183.944L99.5887 183.14C100.508 182.609 101.442 182.092 102.361 181.532C104.157 180.384 105.967 179.279 107.662 178.03C108.093 177.728 108.523 177.427 108.94 177.111L109.586 176.652L110.204 176.164C111.023 175.518 111.842 174.872 112.646 174.24C113.063 173.925 113.436 173.58 113.824 173.25C114.212 172.92 114.6 172.575 114.987 172.245C115.375 171.915 115.749 171.57 116.137 171.24C116.51 170.896 116.869 170.551 117.228 170.207C117.947 169.503 118.679 168.829 119.383 168.14C120.058 167.422 120.719 166.718 121.38 166.015C122.055 165.326 122.658 164.58 123.276 163.862C123.577 163.503 123.879 163.144 124.181 162.785C124.482 162.426 124.784 162.082 125.057 161.709C127.327 158.823 129.28 155.938 130.875 153.153C132.469 150.369 133.719 147.699 134.681 145.273C135.644 142.847 136.304 140.665 136.764 138.856C136.893 138.411 136.965 137.966 137.066 137.564C137.152 137.148 137.253 136.775 137.31 136.416C137.439 135.698 137.554 135.095 137.626 134.593C137.77 133.602 137.827 133.071 137.827 133.071L137.841 133.143Z" fill="white"/>
<path d="M373.089 63.5083L298.006 265.421C295.521 272.11 288.066 275.527 281.358 273.043L160.006 227.984C153.298 225.501 149.893 218.051 152.378 211.347L227.462 9.43434C229.947 2.73071 237.402 -0.67134 244.11 1.81202L365.462 46.8713C372.156 49.3546 375.574 56.8047 373.089 63.5083Z" fill="url(#paint14_radial_66_24)"/>
<path d="M373.089 63.5083L298.006 265.421C295.521 272.11 288.066 275.527 281.358 273.043L160.006 227.984C153.298 225.501 149.893 218.051 152.378 211.347L227.462 9.43434C229.947 2.73071 237.402 -0.67134 244.11 1.81202L365.462 46.8713C372.156 49.3546 375.574 56.8047 373.089 63.5083Z" stroke="white" stroke-width="0.45" stroke-miterlimit="10"/>
<path d="M373.09 63.5083L350.164 125.162C266.232 127.43 204.795 146.722 171.34 160.388L227.462 9.43434C229.947 2.73071 237.402 -0.671339 244.111 1.81202L365.462 46.8713C372.156 49.3546 375.575 56.8047 373.09 63.5083V63.5083Z" fill="url(#paint15_linear_66_24)"/>
<path d="M373.09 63.5083L350.164 125.162C266.232 127.43 204.795 146.722 171.34 160.388L227.462 9.43434C229.947 2.73071 237.402 -0.671339 244.111 1.81202L365.462 46.8713C372.156 49.3546 375.575 56.8047 373.09 63.5083V63.5083Z" fill="url(#paint16_linear_66_24)"/>
<path fill-rule="evenodd" clip-rule="evenodd" d="M250.201 128.707C253.706 130.013 256.248 132.784 257.426 136.057C257.627 136.616 258.274 136.904 258.36 136.932C259.222 137.248 260.17 136.817 260.486 135.956C260.845 134.98 260.27 134.32 260.098 134.176C256.004 131.018 254.237 125.434 256.133 120.338C258.46 114.08 265.485 110.864 271.748 113.19C278.011 115.515 281.228 122.52 278.901 128.793C277.091 133.659 272.466 136.817 267.553 136.703C266.749 136.674 265.944 136.961 265.671 137.736C265.355 138.583 265.801 139.545 266.648 139.861C267.28 140.09 267.855 139.774 268.415 139.459C271.216 137.894 274.721 137.793 277.953 138.985C284.216 141.31 287.434 148.315 285.107 154.574C282.78 160.847 275.77 164.048 269.507 161.723C265.298 160.158 262.468 156.483 261.764 152.335C261.06 148.531 259.064 151.215 258.245 154.919C257.57 157.99 257.642 160.416 257.943 169.603C254.079 165.986 250.819 164.407 245.417 164.953C251.709 157.876 253.002 155.966 254.352 153.584C256.507 149.765 256.435 147.138 253.821 149.32C250.589 152.177 246.15 153.038 241.812 151.43C235.535 149.105 232.331 142.1 234.658 135.827C236.985 129.568 243.995 126.353 250.258 128.678L250.201 128.707Z" fill="white"/>
<path fill-rule="evenodd" clip-rule="evenodd" d="M250.661 127.487C254.166 128.793 256.708 131.564 257.872 134.836C258.073 135.396 258.719 135.683 258.805 135.712C259.667 136.028 260.615 135.597 260.931 134.736C261.29 133.76 260.716 133.1 260.544 132.956C256.45 129.798 254.683 124.214 256.579 119.118C258.906 112.859 265.93 109.644 272.193 111.97C278.456 114.295 281.674 121.3 279.347 127.573C277.537 132.439 272.911 135.597 267.999 135.482C267.194 135.454 266.39 135.741 266.117 136.516C265.801 137.363 266.246 138.325 267.094 138.64C267.726 138.87 268.3 138.554 268.846 138.239C271.647 136.674 275.152 136.573 278.384 137.765C284.647 140.09 287.865 147.095 285.538 153.354C283.211 159.627 276.201 162.828 269.938 160.503C265.729 158.938 262.899 155.263 262.195 151.115C261.492 147.311 259.495 149.995 258.676 153.698C258.001 156.77 258.073 159.196 258.374 168.383C254.525 164.766 251.25 163.187 245.849 163.732C252.14 156.656 253.433 154.746 254.783 152.364C256.938 148.545 256.866 145.918 254.252 148.1C251.02 150.957 246.581 151.818 242.243 150.21C235.966 147.885 232.763 140.88 235.09 134.607C237.417 128.348 244.427 125.133 250.689 127.458L250.661 127.487Z" fill="url(#paint17_radial_66_24)"/>
<path d="M235.391 27.1192L232.734 31.8275L229.315 30.5499L241.123 10.152L245.647 11.8315L241.209 34.9712L237.747 33.6936L238.839 28.3967L235.405 27.1192H235.391ZM241.496 15.98L237.086 24.1191L239.514 25.0234L241.496 15.98V15.98Z" fill="white"/>
<path fill-rule="evenodd" clip-rule="evenodd" d="M228.281 41.9478C229.157 42.2636 229.789 42.9669 230.076 43.7708C230.119 43.9143 230.292 43.9861 230.306 43.9861C230.521 44.0579 230.751 43.9574 230.837 43.7421C230.924 43.4981 230.78 43.3402 230.737 43.2971C229.717 42.5076 229.286 41.1295 229.746 39.8663C230.32 38.316 232.073 37.5122 233.624 38.0864C235.176 38.6605 235.98 40.4118 235.405 41.9621C234.96 43.1679 233.811 43.9574 232.59 43.9287C232.389 43.9287 232.188 44.0005 232.116 44.1871C232.03 44.4024 232.145 44.6321 232.36 44.7182C232.518 44.7756 232.662 44.6895 232.791 44.6177C233.481 44.2302 234.357 44.2014 235.161 44.5029C236.713 45.0771 237.517 46.8283 236.942 48.3786C236.368 49.9433 234.615 50.7328 233.064 50.1586C232.015 49.771 231.312 48.8523 231.139 47.8188C230.967 46.8714 230.464 47.5461 230.263 48.4648C230.091 49.2256 230.119 49.8285 230.191 52.1109C229.229 51.2209 228.424 50.8189 227.074 50.9481C228.64 49.1969 228.956 48.7088 229.3 48.1203C229.832 47.1729 229.818 46.5269 229.171 47.058C228.367 47.7614 227.261 47.9767 226.183 47.5748C224.618 47.0006 223.828 45.2637 224.402 43.699C224.977 42.1487 226.715 41.3449 228.281 41.919V41.9478Z" fill="white"/>
<path d="M235.535 26.703L232.877 31.4114L229.458 30.1338L241.266 9.73584L245.791 11.4153L241.352 34.555L237.89 33.2775L238.982 27.9806L235.549 26.703H235.535ZM241.64 15.5638L237.23 23.7029L239.657 24.6073L241.64 15.5638V15.5638Z" fill="url(#paint18_linear_66_24)"/>
<path fill-rule="evenodd" clip-rule="evenodd" d="M228.439 41.5458C229.315 41.8759 229.947 42.565 230.234 43.3688C230.292 43.5124 230.45 43.5841 230.464 43.5841C230.68 43.6559 230.91 43.5554 230.996 43.3401C231.082 43.0961 230.938 42.9382 230.895 42.8951C229.875 42.1056 229.444 40.7276 229.904 39.4644C230.479 37.9141 232.231 37.1102 233.782 37.6844C235.334 38.2586 236.138 40.0098 235.564 41.5601C235.118 42.7659 233.969 43.5554 232.748 43.5267C232.547 43.5267 232.346 43.5985 232.274 43.7851C232.202 44.0004 232.303 44.2301 232.518 44.3162C232.676 44.3736 232.82 44.2875 232.949 44.2157C233.639 43.8282 234.515 43.7995 235.319 44.1009C236.871 44.6751 237.675 46.4264 237.101 47.9767C236.526 49.5413 234.774 50.3308 233.222 49.7566C232.174 49.3691 231.47 48.4504 231.297 47.4168C231.125 46.4694 230.622 47.1441 230.421 48.0628C230.249 48.8236 230.277 49.4265 230.349 51.7089C229.387 50.8045 228.582 50.417 227.232 50.5461C228.798 48.7949 229.114 48.3068 229.459 47.7183C229.99 46.7709 229.976 46.1249 229.329 46.656C228.525 47.3594 227.419 47.5747 226.342 47.1728C224.776 46.5986 223.986 44.8617 224.56 43.297C225.135 41.7467 226.873 40.9429 228.439 41.5171V41.5458Z" fill="url(#paint19_radial_66_24)"/>
<path d="M290.163 246.502L292.82 241.793L296.239 243.071L284.432 263.469L279.907 261.789L284.345 238.65L287.807 239.927L286.716 245.224L290.149 246.502H290.163ZM284.058 257.641L288.468 249.502L286.04 248.597L284.058 257.641V257.641Z" fill="white"/>
<path fill-rule="evenodd" clip-rule="evenodd" d="M297.618 231.716C296.742 231.386 296.11 230.697 295.823 229.893C295.765 229.75 295.607 229.678 295.593 229.678C295.377 229.592 295.148 229.707 295.061 229.922C294.975 230.166 295.119 230.324 295.162 230.367C296.182 231.157 296.613 232.535 296.153 233.798C295.579 235.348 293.826 236.152 292.275 235.578C290.723 235.004 289.919 233.252 290.493 231.702C290.939 230.496 292.088 229.707 293.309 229.735C293.51 229.735 293.711 229.664 293.783 229.477C293.855 229.262 293.754 229.032 293.539 228.946C293.381 228.889 293.237 228.96 293.108 229.046C292.418 229.434 291.542 229.463 290.738 229.161C289.186 228.587 288.382 226.836 288.956 225.286C289.531 223.735 291.284 222.931 292.835 223.506C293.884 223.893 294.587 224.812 294.76 225.831C294.932 226.778 295.435 226.104 295.636 225.185C295.808 224.424 295.78 223.821 295.708 221.539C296.67 222.429 297.475 222.831 298.825 222.702C297.259 224.453 296.943 224.927 296.598 225.53C296.067 226.477 296.081 227.137 296.728 226.592C297.532 225.874 298.638 225.659 299.715 226.061C301.281 226.635 302.071 228.372 301.497 229.936C300.922 231.487 299.184 232.291 297.618 231.716V231.716Z" fill="white"/>
<path d="M290.019 246.875L292.677 242.167L296.096 243.444L284.288 263.842L279.763 262.163L284.202 239.023L287.664 240.301L286.572 245.598L290.005 246.875H290.019ZM283.915 258.014L288.324 249.875L285.882 248.971L283.915 258.014V258.014Z" fill="url(#paint20_linear_66_24)"/>
<path fill-rule="evenodd" clip-rule="evenodd" d="M297.475 232.104C296.598 231.788 295.966 231.085 295.679 230.281C295.636 230.137 295.464 230.08 295.449 230.065C295.234 229.994 295.004 230.094 294.918 230.31C294.832 230.554 294.975 230.711 295.018 230.755C296.038 231.544 296.469 232.922 296.01 234.185C295.435 235.736 293.682 236.539 292.131 235.965C290.58 235.391 289.775 233.64 290.35 232.089C290.795 230.884 291.944 230.094 293.165 230.123C293.366 230.123 293.568 230.051 293.639 229.865C293.726 229.649 293.611 229.42 293.395 229.333C293.237 229.276 293.094 229.362 292.964 229.434C292.26 229.821 291.399 229.85 290.594 229.549C289.043 228.975 288.238 227.223 288.813 225.673C289.388 224.108 291.14 223.319 292.691 223.893C293.74 224.281 294.444 225.199 294.616 226.218C294.789 227.166 295.291 226.491 295.492 225.572C295.665 224.812 295.636 224.209 295.564 221.926C296.527 222.816 297.331 223.218 298.681 223.075C297.116 224.84 296.8 225.314 296.455 225.903C295.923 226.85 295.938 227.51 296.584 226.965C297.389 226.247 298.495 226.046 299.572 226.448C301.138 227.022 301.928 228.759 301.353 230.324C300.779 231.874 299.026 232.678 297.475 232.104V232.104Z" fill="url(#paint21_radial_66_24)"/>
<path d="M208.601 426.294L394.751 344.774C403.37 340.998 410.71 344.3 410.954 352.281L415.68 508.876C415.967 518.25 408.297 527.207 398.816 528.786L199.207 561.83C194.567 562.605 191.263 557.926 191.737 551.438L199.853 440.304C200.284 434.505 204.162 428.26 208.601 426.322V426.294Z" fill="url(#paint22_radial_66_24)"/>
<path d="M208.601 426.294L394.751 344.774C403.37 340.998 410.71 344.3 410.954 352.281L415.68 508.876C415.967 518.25 408.297 527.207 398.816 528.786L199.207 561.83C194.567 562.605 191.263 557.926 191.737 551.438L199.853 440.304C200.284 434.505 204.162 428.26 208.601 426.322V426.294Z" stroke="white" stroke-width="0.47" stroke-miterlimit="10"/>
<path d="M208.601 426.294L253.62 406.585C275.41 470.176 309.713 513.914 334.334 539.451L199.221 561.816C194.581 562.591 191.278 557.911 191.752 551.423L199.867 440.289C200.298 434.49 204.177 428.246 208.615 426.308L208.601 426.294Z" fill="url(#paint23_linear_66_24)"/>
<path d="M208.601 426.294L253.62 406.585C275.41 470.176 309.713 513.914 334.334 539.451L199.221 561.816C194.581 562.591 191.278 557.911 191.752 551.423L199.867 440.289C200.298 434.49 204.177 428.246 208.615 426.308L208.601 426.294Z" fill="url(#paint24_linear_66_24)"/>
<path fill-rule="evenodd" clip-rule="evenodd" d="M299.413 474.382C299.241 481.129 294.472 487.904 288.87 489.397C285.264 490.359 283.023 489.411 280.61 487.201C274.721 481.803 269.377 476.478 262.41 473.923C268.199 468.281 274.146 460.702 281.86 449.95C284.086 446.835 286.931 443.505 290.263 442.342C295.75 440.433 300.16 444.165 300.002 450.725C299.887 455.233 297.647 459.869 294.443 462.884C298.236 461.951 303.809 457.774 309.943 452.678C308.291 457.917 307.96 461.534 309.684 465.755C303.191 464.42 297.977 464.161 294.415 465.367C297.489 466.472 299.528 469.803 299.428 474.382H299.413Z" fill="white"/>
<path fill-rule="evenodd" clip-rule="evenodd" d="M298.724 474.583C298.552 481.33 293.783 488.091 288.209 489.569C284.604 490.531 282.377 489.584 279.978 487.373C274.103 481.976 268.774 476.664 261.822 474.109C267.596 468.482 273.529 460.903 281.228 450.166C283.455 447.051 286.299 443.72 289.603 442.572C295.075 440.677 299.485 444.395 299.313 450.941C299.198 455.448 296.957 460.07 293.768 463.085C297.546 462.152 303.105 457.989 309.239 452.893C307.587 458.118 307.257 461.736 308.98 465.956C302.502 464.621 297.302 464.348 293.74 465.568C296.814 466.674 298.839 470.004 298.738 474.569L298.724 474.583Z" fill="url(#paint25_radial_66_24)"/>
<path d="M209.305 547.504L212.896 547.604L212.681 551.05L197.426 550.26L197.742 545.853L213.442 539.121L213.227 542.58L209.535 544.073L209.319 547.49L209.305 547.504ZM201.045 547.418L207.035 547.447L207.193 545.035L201.045 547.418Z" fill="white"/>
<path fill-rule="evenodd" clip-rule="evenodd" d="M225.709 545.423C225.609 547.231 224.46 548.911 223.167 549.155C222.319 549.313 221.802 548.983 221.256 548.308C219.892 546.614 218.642 544.935 216.933 543.959C218.412 542.581 219.92 540.671 221.86 537.973C222.42 537.198 223.124 536.394 223.914 536.221C225.207 535.949 226.169 537.198 226.068 539.006C225.997 540.241 225.436 541.418 224.675 542.121C225.551 542.006 226.844 541.102 228.266 539.968C227.85 541.317 227.735 542.279 228.065 543.485C226.643 542.882 225.465 542.609 224.646 542.81C225.336 543.227 225.767 544.217 225.695 545.452L225.709 545.423Z" fill="white"/>
<path d="M208.975 547.575L212.566 547.676L212.35 551.121L197.124 550.332L197.44 545.925L213.126 539.192L212.91 542.652L209.219 544.145L208.989 547.561L208.975 547.575ZM200.729 547.475L206.719 547.504L206.877 545.092L200.729 547.475Z" fill="url(#paint26_linear_66_24)"/>
<path fill-rule="evenodd" clip-rule="evenodd" d="M225.364 545.48C225.264 547.289 224.115 548.969 222.822 549.213C221.974 549.371 221.457 549.04 220.911 548.366C219.561 546.672 218.297 545.007 216.602 544.016C218.082 542.638 219.59 540.729 221.529 538.03C222.089 537.255 222.793 536.451 223.583 536.279C224.876 536.006 225.838 537.255 225.738 539.064C225.666 540.298 225.106 541.475 224.359 542.179C225.235 542.078 226.528 541.16 227.936 540.026C227.519 541.375 227.404 542.337 227.735 543.543C226.312 542.94 225.149 542.667 224.33 542.868C225.02 543.284 225.451 544.275 225.379 545.509L225.364 545.48Z" fill="url(#paint27_radial_66_24)"/>
<path d="M377.614 367.281L371.567 368.875L371.523 364.985L398.629 357.922L398.759 363.262L371.653 378.535L371.61 374.574L377.643 371.215L377.585 367.267L377.614 367.281ZM392.309 363.219L381.536 366.248L381.579 369.061L392.309 363.219Z" fill="white"/>
<path fill-rule="evenodd" clip-rule="evenodd" d="M351.27 376.67C351.27 374.732 352.807 372.492 354.703 371.689C355.953 371.157 356.757 371.272 357.648 371.76C359.888 372.966 362 374.229 364.801 374.56C362.603 376.698 360.434 379.397 357.691 383.115C356.915 384.177 355.909 385.311 354.732 385.785C352.821 386.546 351.27 385.57 351.27 383.617C351.27 382.282 351.988 380.818 353.051 379.77C351.772 380.23 349.948 381.708 347.98 383.431C348.483 381.852 348.569 380.789 347.98 379.67C350.092 379.742 351.83 379.569 353.037 379.038C351.974 378.866 351.27 378.005 351.27 376.684V376.67Z" fill="white"/>
<path d="M377.973 367.138L371.926 368.732L371.883 364.841L399.032 357.779L399.161 363.119L372.026 378.407L371.983 374.445L378.031 371.086L377.973 367.138V367.138ZM392.682 363.076L381.895 366.105L381.938 368.918L392.682 363.076Z" fill="url(#paint28_linear_66_24)"/>
<path fill-rule="evenodd" clip-rule="evenodd" d="M351.614 376.526C351.614 374.588 353.151 372.349 355.047 371.545C356.297 371.014 357.101 371.129 358.006 371.617C360.247 372.823 362.373 374.086 365.16 374.416C362.962 376.555 360.793 379.254 358.035 382.972C357.245 384.034 356.254 385.168 355.076 385.642C353.166 386.402 351.614 385.426 351.614 383.474C351.614 382.139 352.332 380.675 353.395 379.627C352.117 380.086 350.278 381.565 348.325 383.287C348.827 381.708 348.914 380.646 348.325 379.526C350.436 379.598 352.174 379.426 353.381 378.895C352.318 378.723 351.6 377.861 351.6 376.541L351.614 376.526Z" fill="url(#paint29_radial_66_24)"/>
<path style="mix-blend-mode:multiply" opacity="0.54" d="M272.232 409.034C317.926 431.6 319.506 483.334 276.786 524.675C234.382 565.701 163.177 582.051 116.75 561.15C69.4625 539.863 65.2537 487.956 108.39 445.28C151.872 402.259 225.72 386.067 272.246 409.034H272.232Z" fill="url(#paint30_radial_66_24)"/>
<path d="M528.887 246.674L494.771 407.417C493.105 415.284 485.679 418.298 478.223 413.906L338.155 331.395C330.125 326.658 327.224 317.256 331.562 310.595L419.013 176.365C420.966 173.365 426.64 173.637 431.725 176.896L521.518 234.53C526.359 237.63 529.663 243.042 528.887 246.674V246.674Z" fill="url(#paint31_radial_66_24)"/>
<path d="M528.887 246.674L494.771 407.417C493.105 415.284 485.679 418.298 478.223 413.906L338.155 331.395C330.125 326.658 327.224 317.256 331.562 310.595L419.013 176.365C420.966 173.365 426.64 173.637 431.725 176.896L521.518 234.53C526.359 237.63 529.663 243.042 528.887 246.674V246.674Z" stroke="white" stroke-width="0.47" stroke-miterlimit="10"/>
<path d="M528.887 246.674L520.958 283.996C452.999 265.091 396.144 263.943 360.592 266.024L419.013 176.365C420.966 173.365 426.64 173.638 431.725 176.896L521.518 234.53C526.359 237.631 529.663 243.042 528.887 246.674V246.674Z" fill="url(#paint32_linear_66_24)"/>
<path d="M528.887 246.674L520.958 283.996C452.999 265.091 396.144 263.943 360.592 266.024L419.013 176.365C420.966 173.365 426.64 173.638 431.725 176.896L521.518 234.53C526.359 237.631 529.663 243.042 528.887 246.674V246.674Z" fill="url(#paint33_linear_66_24)"/>
<path fill-rule="evenodd" clip-rule="evenodd" d="M429.025 260.282C439.755 259.521 449.279 257.885 457.309 255C459.823 263.943 464.333 274.35 470.61 286.078C459.88 286.035 450.4 288.647 441.752 293.427C439.511 282.604 435.245 271.565 429.025 260.282Z" fill="white"/>
<path fill-rule="evenodd" clip-rule="evenodd" d="M429.556 259.162C440.244 258.43 449.738 256.808 457.725 253.952C460.239 262.852 464.749 273.216 470.998 284.886C460.311 284.814 450.873 287.398 442.255 292.149C439.999 281.383 435.747 270.402 429.542 259.162H429.556Z" fill="#BB1338"/>
<path d="M425.204 189.04L423.107 191.064L420.378 189.327L429.543 180.944L433.004 183.169L429.83 195.356L427.086 193.605L427.919 190.777L425.219 189.054L425.204 189.04ZM429.887 184.332L426.526 187.763L428.436 188.983L429.887 184.332V184.332Z" fill="white"/>
<path fill-rule="evenodd" clip-rule="evenodd" d="M416.758 195.184C419.171 195.27 421.383 195.155 423.322 194.767C423.768 196.576 424.658 198.657 425.908 200.997C423.423 200.696 421.254 200.897 419.315 201.5C418.927 199.533 418.065 197.437 416.772 195.198L416.758 195.184Z" fill="white"/>
<path d="M425.449 188.653L423.351 190.662L420.622 188.925L429.758 180.571L433.22 182.796L430.06 194.954L427.316 193.203L428.135 190.39L425.434 188.667L425.449 188.653ZM430.117 183.959L426.756 187.375L428.666 188.595L430.117 183.959Z" fill="#BB1338"/>
<path fill-rule="evenodd" clip-rule="evenodd" d="M417.017 194.768C419.43 194.854 421.642 194.739 423.567 194.352C424.012 196.146 424.903 198.242 426.152 200.567C423.682 200.266 421.513 200.467 419.559 201.055C419.171 199.103 418.309 197.007 417.017 194.768V194.768Z" fill="#BB1338"/>
<path d="M484.687 383.244L486.799 378.436L490.347 380.56L480.708 402.25L475.781 399.322L478.022 373.167L481.613 375.321L481.082 381.091L484.687 383.244V383.244ZM479.674 395.101L483.308 386.374L480.737 384.838L479.674 395.101V395.101Z" fill="white"/>
<path fill-rule="evenodd" clip-rule="evenodd" d="M481.57 361.052C484.3 360.349 486.77 359.373 488.867 358.009C489.715 360.98 491.094 364.296 492.947 367.914C490.103 368.258 487.704 369.392 485.621 371.144C484.802 367.856 483.452 364.497 481.57 361.052V361.052Z" fill="white"/>
<path d="M484.515 383.977L486.641 379.154L490.189 381.278L480.522 403.04L475.58 400.111L477.836 373.885L481.441 376.039L480.91 381.823L484.515 383.977ZM479.487 395.877L483.136 387.12L480.565 385.584L479.502 395.877H479.487Z" fill="#BB1338"/>
<path fill-rule="evenodd" clip-rule="evenodd" d="M481.384 361.727C484.127 361.023 486.598 360.047 488.695 358.669C489.543 361.641 490.936 364.971 492.775 368.588C489.931 368.947 487.517 370.081 485.435 371.833C484.616 368.545 483.266 365.172 481.384 361.713V361.727Z" fill="#BB1338"/>
<path d="M101.111 525.901C100.565 525.7 100.02 525.499 99.4881 525.298C87.6087 520.69 77.5535 513.699 69.9834 505.373C62.7868 497.478 57.8167 488.392 55.5902 479.033C53.5073 470.291 53.8233 461.333 56.9548 452.878C55.4322 458.85 55.6045 465.123 57.2421 471.353C59.5691 480.195 64.8697 488.952 72.5116 496.674C80.369 504.627 90.6827 511.46 102.792 516.139C103.568 516.441 104.358 516.742 105.148 517.015C116.539 521.092 128.002 522.714 138.488 522.14C150.037 521.508 160.408 518.235 168.265 512.622C174.04 508.503 178.464 503.134 180.978 496.631C181.15 496.186 181.323 495.713 181.481 495.253C181.064 496.804 180.576 498.325 179.987 499.847C176.769 508.129 171.181 514.962 164.014 520.058C155.768 525.929 145.412 529.532 134.15 530.494C123.606 531.384 112.287 529.963 101.14 525.901H101.111Z" fill="#BB1338"/>
<path d="M105.133 517.015C104.343 516.742 103.567 516.441 102.777 516.139C90.6681 511.46 80.3544 504.627 72.497 496.674C64.8551 488.951 59.5546 480.195 57.2275 471.353C55.2308 463.788 55.4176 456.165 58.1612 449.074C58.8363 447.337 59.6551 445.672 60.5888 444.093C64.5247 437.49 70.6583 432.337 78.2572 428.834C86.5599 425.001 96.615 423.135 107.403 423.509C116.524 423.81 126.192 425.705 135.787 429.351C135.974 429.423 136.161 429.494 136.362 429.566C146.963 433.672 156.185 439.428 163.597 446.117C170.707 452.548 176.137 459.869 179.47 467.419C183.204 475.917 184.296 484.731 182.156 492.971C181.84 494.205 181.452 495.425 180.978 496.617C178.464 503.105 174.04 508.488 168.265 512.608C160.408 518.221 150.022 521.494 138.488 522.125C128.002 522.699 116.553 521.077 105.148 517L105.133 517.015Z" fill="#BB1338"/>
<path d="M109.256 499.488C86.8902 490.832 73.7035 471.08 79.7941 455.376C85.8846 439.672 108.954 433.959 131.305 442.629C153.671 451.285 166.857 471.037 160.767 486.741C154.676 502.445 131.607 508.158 109.241 499.488H109.256Z" fill="#BB1338"/>
<path d="M164.746 467.908C162.405 462.266 158.497 456.797 153.312 451.974L163.582 446.132C170.693 452.562 176.123 459.883 179.455 467.434L164.746 467.908V467.908Z" fill="url(#paint34_linear_66_24)"/>
<path d="M110.836 434.72L107.417 423.509C116.539 423.81 126.206 425.705 135.802 429.351L132.024 438.969C124.856 436.27 117.645 434.892 110.85 434.72H110.836Z" fill="url(#paint35_linear_66_24)"/>
<path d="M76.1169 450.883L60.5889 444.094C64.5247 437.49 70.6584 432.337 78.2572 428.835L89.4328 438.811C83.6008 441.567 78.9467 445.644 76.1026 450.883H76.1169Z" fill="url(#paint36_linear_66_24)"/>
<path d="M72.5114 496.675C64.8695 488.952 59.569 480.195 57.2419 471.353L74.3788 471.109C76.2749 477.597 80.3257 483.985 86.0284 489.583L72.5114 496.675Z" fill="url(#paint37_linear_66_24)"/>
<path d="M105.133 517.015L109.658 504.038C117.946 506.981 126.263 508.158 133.905 507.77L138.459 522.139C127.973 522.713 116.524 521.091 105.119 517.015H105.133Z" fill="url(#paint38_linear_66_24)"/>
<path d="M168.251 512.623L155.725 500.981C160.207 497.895 163.626 493.804 165.55 488.837C165.737 488.378 165.895 487.904 166.039 487.43L182.141 492.985C181.825 494.22 181.438 495.44 180.964 496.632C178.45 503.12 174.025 508.503 168.251 512.623V512.623Z" fill="url(#paint39_linear_66_24)"/>
<path d="M82.868 461.836L85.9994 462.238C85.6547 464.922 85.9276 467.735 86.8038 470.592L83.7873 471.511C82.7818 468.223 82.4801 464.965 82.8823 461.85L82.868 461.836ZM86.4016 452.706C88.2116 450.122 90.6248 447.926 93.5839 446.175L95.1927 448.888C92.6215 450.409 90.5386 452.304 88.9873 454.529L86.4016 452.72V452.706ZM87.9961 480.08L90.5961 478.3C92.1905 480.611 94.1298 482.822 96.385 484.86L94.2734 487.186C91.8458 484.975 89.7342 482.592 88.0105 480.08H87.9961ZM102.476 442.672C105.449 441.969 108.609 441.624 111.884 441.639V444.782C108.839 444.782 105.923 445.098 103.194 445.73L102.476 442.672ZM101.815 492.784L103.452 490.086C105.937 491.593 108.609 492.899 111.396 493.976H111.439L110.304 496.933L110.247 496.904C107.302 495.77 104.472 494.378 101.829 492.784H101.815ZM120.647 445.658L121.25 442.572C124.281 443.175 127.312 444.05 130.271 445.199L129.136 448.127C126.349 447.05 123.505 446.218 120.647 445.658ZM119.311 499.545L119.914 496.459C120.23 496.516 120.546 496.574 120.862 496.631C123.491 497.091 126.12 497.335 128.676 497.335V500.478C125.933 500.478 123.132 500.22 120.316 499.732C119.972 499.674 119.641 499.617 119.296 499.545H119.311ZM137.08 452.003L138.703 449.304C141.446 450.955 143.989 452.85 146.259 454.902L144.147 457.228C142.021 455.304 139.637 453.539 137.065 451.988L137.08 452.003ZM137.367 496.373C140.34 495.67 143.041 494.622 145.368 493.215L146.977 495.914C144.362 497.478 141.36 498.655 138.071 499.43L137.353 496.373H137.367ZM149.936 463.802L152.536 462.022C154.446 464.807 155.868 467.692 156.759 470.606L153.743 471.525C152.952 468.927 151.66 466.329 149.936 463.817V463.802ZM151.573 487.588C152.364 486.454 153.024 485.219 153.527 483.942C154.03 482.636 154.375 481.257 154.561 479.865L157.693 480.253C157.492 481.889 157.075 483.525 156.472 485.076C155.883 486.597 155.107 488.047 154.173 489.382L151.588 487.588H151.573Z" fill="#F5F5F5"/>
<path d="M112.287 491.665C96.0835 485.392 86.5167 471.066 90.9266 459.682C95.3365 448.299 112.057 444.165 128.274 450.438C144.492 456.711 154.044 471.037 149.634 482.42C145.225 493.803 128.504 497.938 112.287 491.665V491.665Z" fill="#BB1338"/>
<path d="M142.51 459.496C128.619 456.884 114.643 463.917 109.601 476.908C107.978 481.1 107.46 485.464 107.906 489.698C94.4174 482.736 86.9335 470.004 90.9268 459.683C95.3511 448.314 112.071 444.165 128.275 450.453C133.934 452.649 138.789 455.807 142.51 459.496Z" fill="url(#paint40_linear_66_24)"/>
<path d="M112.287 491.665C97.0459 485.765 87.6802 472.76 90.2946 461.764C89.0592 472.343 98.2094 484.272 112.617 489.842C128.835 496.115 145.555 491.981 149.965 480.597C150.223 479.908 150.439 479.219 150.611 478.516C150.453 479.837 150.137 481.143 149.649 482.42C145.239 493.804 128.519 497.938 112.301 491.665H112.287Z" fill="#BB1338"/>
<path d="M163.999 520.058L168.251 512.608C174.025 508.488 178.449 503.12 180.963 496.617C181.136 496.172 181.308 495.698 181.466 495.239C181.049 496.789 180.561 498.311 179.972 499.832C176.754 508.115 171.167 514.948 163.999 520.044V520.058Z" fill="url(#paint41_linear_66_24)"/>
<path d="M101.111 525.901L105.133 517.015C116.524 521.092 127.987 522.714 138.473 522.14L134.135 530.509C123.592 531.399 112.273 529.977 101.126 525.915L101.111 525.901Z" fill="url(#paint42_linear_66_24)"/>
<path d="M69.9831 505.373C62.7865 497.478 57.8163 488.392 55.5898 479.033L57.2418 471.353C59.5688 480.195 64.8693 488.952 72.5112 496.674L69.9831 505.373V505.373Z" fill="url(#paint43_linear_66_24)"/>
<path d="M168.251 512.623C168.251 512.623 167.82 512.924 167.016 513.484C166.613 513.771 166.082 514.072 165.493 514.46C165.191 514.661 164.847 514.833 164.502 515.049C164.143 515.25 163.769 515.479 163.367 515.68C161.758 516.556 159.733 517.503 157.334 518.422C154.935 519.326 152.177 520.188 149.089 520.848C146.015 521.508 142.625 521.982 139.019 522.212C138.56 522.255 138.1 522.255 137.655 522.269C137.195 522.269 136.735 522.298 136.276 522.312C135.356 522.341 134.408 522.384 133.46 522.341C132.512 522.312 131.55 522.298 130.587 522.269C129.625 522.212 128.648 522.125 127.671 522.068C127.168 522.025 126.68 521.996 126.192 521.953C125.703 521.896 125.2 521.838 124.712 521.767C124.209 521.709 123.721 521.652 123.218 521.58C122.715 521.508 122.213 521.465 121.724 521.365C120.719 521.192 119.713 521.02 118.708 520.848L117.946 520.719L117.185 520.546C116.682 520.432 116.18 520.317 115.677 520.202C113.651 519.786 111.655 519.183 109.629 518.637C108.624 518.336 107.633 517.991 106.642 517.661L105.148 517.173L103.668 516.628L102.935 516.355C102.677 516.269 102.447 516.154 102.203 516.053L100.752 515.45L99.3013 514.848C98.8272 514.647 98.3245 514.46 97.8648 514.216C95.9831 513.297 94.0726 512.45 92.277 511.417C88.6141 509.508 85.2097 507.24 82.0064 504.957C81.2307 504.354 80.455 503.766 79.6793 503.177C79.2915 502.876 78.9036 502.603 78.5445 502.287C78.1854 501.971 77.8119 501.67 77.4528 501.354C76.7346 500.737 76.0164 500.134 75.3269 499.517C74.6517 498.871 73.991 498.239 73.3446 497.622C70.7446 495.124 68.5037 492.526 66.5932 490.028C64.6828 487.516 63.117 485.09 61.8817 482.837C60.6463 480.597 59.727 478.559 59.0519 476.851C58.8651 476.435 58.7215 476.018 58.5778 475.631C58.4486 475.243 58.3049 474.884 58.19 474.554C57.9745 473.879 57.7734 473.305 57.6441 472.832C57.3856 471.884 57.2419 471.382 57.2419 471.382C57.2419 471.382 57.3856 471.884 57.6585 472.832C57.8022 473.305 58.0033 473.879 58.2187 474.554C58.3336 474.884 58.4773 475.243 58.6209 475.631C58.7646 476.018 58.9082 476.42 59.095 476.836C59.7845 478.545 60.7182 480.554 61.9822 482.779C63.2319 485.004 64.812 487.416 66.7225 489.914C68.633 492.411 70.8595 494.995 73.4738 497.478C74.1202 498.096 74.781 498.727 75.4562 499.373C76.1313 499.991 76.8639 500.593 77.5821 501.211C77.9412 501.512 78.3003 501.828 78.6594 502.129C79.0186 502.445 79.4208 502.718 79.7942 503.019C80.5556 503.608 81.3312 504.196 82.1213 504.785C85.3246 507.053 88.7146 509.307 92.3776 511.202C94.1731 512.221 96.0692 513.053 97.951 513.972C98.4107 514.202 98.9134 514.388 99.3874 514.589L100.838 515.192L102.289 515.795C102.533 515.896 102.777 516.01 103.007 516.082L103.74 516.355L105.205 516.9L106.699 517.403C107.69 517.733 108.681 518.077 109.672 518.379C111.683 518.939 113.68 519.542 115.691 519.958C116.194 520.073 116.697 520.188 117.199 520.302L117.946 520.475L118.708 520.618C119.713 520.79 120.719 520.977 121.71 521.149C122.213 521.25 122.701 521.293 123.204 521.365C123.707 521.436 124.209 521.494 124.698 521.551C125.2 521.609 125.689 521.68 126.177 521.738C126.666 521.795 127.154 521.824 127.657 521.853C128.634 521.924 129.61 522.011 130.573 522.068C131.535 522.097 132.498 522.111 133.431 522.14C134.379 522.183 135.313 522.14 136.232 522.125C136.692 522.125 137.152 522.097 137.611 522.082C138.071 522.082 138.516 522.068 138.976 522.025C142.567 521.81 145.957 521.336 149.031 520.69C152.105 520.03 154.878 519.211 157.276 518.321C159.675 517.431 161.701 516.513 163.324 515.651C163.741 515.45 164.1 515.221 164.459 515.02C164.818 514.819 165.148 514.632 165.45 514.446C166.053 514.072 166.585 513.771 166.987 513.484C167.806 512.938 168.237 512.637 168.237 512.637L168.251 512.623Z" fill="white"/>
<path style="mix-blend-mode:multiply" opacity="0.54" d="M424.356 386.56C470.05 409.125 471.63 460.86 428.91 502.201C386.506 543.227 315.301 559.576 268.875 538.676C221.587 517.388 217.378 465.482 260.514 422.805C303.996 379.784 377.844 363.592 424.37 386.56H424.356Z" fill="url(#paint44_radial_66_24)"/>
<path style="mix-blend-mode:multiply" opacity="0.54" d="M475.89 60.4782C520.459 82.4882 522 132.949 480.331 173.272C438.971 213.288 369.52 229.235 324.237 208.849C278.113 188.085 274.008 137.457 316.082 95.8313C358.493 53.8696 430.523 38.0763 475.904 60.4782H475.89Z" fill="url(#paint45_radial_66_24)"/>
<path style="mix-blend-mode:multiply" opacity="0.54" d="M411.989 31.2248C450.342 54.8957 454.809 102.783 422.82 138.339C391.074 173.623 334.506 184.332 295.665 162.154C256.119 139.559 249.497 91.3565 281.746 54.5799C314.252 17.5162 372.96 7.12338 412.003 31.2105L411.989 31.2248Z" fill="url(#paint46_radial_66_24)"/>
<path style="mix-blend-mode:multiply" opacity="0.46" d="M187.284 140.736C233.007 142.631 264.982 181.202 259.48 226.577C254.022 271.622 213.514 307.566 168.266 307.15C122.184 306.734 88.2553 268.923 93.2398 222.386C98.2674 175.475 140.743 138.784 187.284 140.722V140.736Z" fill="url(#paint47_radial_66_24)"/>
<path d="M349.862 442.917C348.626 443.519 347.262 443.921 345.811 444.137C339.72 445.07 331.892 442.787 323.316 437.907C313.821 432.509 303.421 423.897 293.495 412.901C290.565 409.657 287.678 406.183 284.862 402.537C279.447 395.503 274.778 388.355 270.943 381.407C264.321 369.378 260.169 357.908 258.905 348.477C257.771 339.965 258.977 333.103 262.841 328.984L276.157 319.179L276.732 319.811C273.615 324.491 272.983 331.639 274.563 340.266C276.387 350.257 281.185 362.243 288.511 374.603C291.858 380.244 295.736 385.986 300.089 391.656C302.401 394.656 304.771 397.527 307.156 400.269C316.378 410.791 326.088 419.26 335.152 425.002C342.406 429.595 349.244 432.466 355.076 433.242C357.432 433.557 359.629 433.543 361.626 433.155L362 434.261C362 434.261 352.476 441.223 352.016 441.567C351.341 442.084 350.609 442.529 349.833 442.902L349.862 442.917Z" fill="url(#paint48_radial_66_24)"/>
<path d="M349.861 442.916C348.626 443.519 347.261 443.921 345.811 444.136L356.886 435.839L355.104 433.241C357.46 433.557 359.658 433.543 361.655 433.155L362.028 434.26C362.028 434.26 352.504 441.222 352.045 441.567C351.37 442.084 350.637 442.529 349.861 442.902V442.916Z" fill="url(#paint49_linear_66_24)"/>
<path d="M334.822 429.696L323.302 437.921C313.807 432.524 303.407 423.911 293.481 412.916L305.044 404.303L307.17 400.284C316.392 410.806 323.632 417.667 332.696 423.423L334.808 429.711L334.822 429.696Z" fill="url(#paint50_linear_66_24)"/>
<path d="M282.448 372.679L270.943 381.407C264.32 369.377 260.169 357.908 258.905 348.477L270.67 340.166L275.712 345.764C277.536 355.769 279.26 358.899 286.585 371.272L282.448 372.679V372.679Z" fill="url(#paint51_linear_66_24)"/>
<path d="M363.795 433.184C361.914 434.633 359.673 435.495 357.13 435.811C351.011 436.586 343.168 434.217 334.621 429.265C325.169 423.81 314.87 415.212 305.044 404.273C302.172 401.087 299.356 397.699 296.612 394.139C291.154 387.048 286.457 379.842 282.607 372.837C276.042 360.908 271.934 349.525 270.67 340.151C269.607 332.27 270.541 325.811 273.73 321.605C274.405 320.715 275.195 319.925 276.071 319.236C279.705 316.437 284.719 315.834 290.579 317.098C296.368 318.346 302.976 321.433 309.9 326.055C318.346 331.682 327.281 339.591 335.813 349.266C338.327 352.123 340.812 355.123 343.24 358.281C347.492 363.793 351.27 369.363 354.545 374.861C360.894 385.497 365.375 395.847 367.717 404.919C369.728 412.671 370.159 419.489 368.88 424.757C368.004 428.346 366.324 431.217 363.781 433.169L363.795 433.184Z" fill="url(#paint52_radial_66_24)"/>
<path d="M349.445 412.742C340.553 419.575 320.529 408.465 304.714 387.923C288.898 367.382 283.282 345.189 292.174 338.357C301.065 331.524 321.089 342.634 336.905 363.176C352.72 383.717 358.337 405.91 349.445 412.742V412.742Z" fill="url(#paint53_radial_66_24)"/>
<path d="M288.985 334.223C288.252 334.783 287.606 335.443 287.045 336.19L273.729 321.62C274.405 320.73 275.195 319.94 276.071 319.251C279.705 316.452 284.718 315.849 290.579 317.112L298.853 332.17C294.932 331.625 291.541 332.256 288.985 334.223V334.223Z" fill="white"/>
<path d="M292.303 372.837H282.607C276.042 360.923 271.934 349.539 270.67 340.166L284.417 349.023C285.02 355.841 287.735 364.152 292.303 372.837Z" fill="white"/>
<path d="M334.62 429.265C325.169 423.81 314.869 415.212 305.044 404.274L309.08 396.666C316.593 404.963 324.58 411.322 331.834 415.126L334.62 429.265Z" fill="white"/>
<path d="M363.795 433.184C361.914 434.634 359.673 435.495 357.13 435.811L347.808 418.915C349.618 418.614 351.241 417.939 352.62 416.877C354.473 415.456 355.751 413.432 356.513 410.92L368.88 424.772C368.004 428.361 366.323 431.232 363.781 433.184H363.795Z" fill="white"/>
<path d="M367.731 404.934L356.498 397.412C355.119 390.636 352.016 382.828 347.419 374.818L354.559 374.875C360.908 385.512 365.389 395.862 367.731 404.934V404.934Z" fill="white"/>
<path d="M332.796 354.736C326.648 347.903 320.184 342.362 314.036 338.443L309.899 326.084C318.346 331.711 327.28 339.62 335.813 349.295L332.796 354.75V354.736Z" fill="white"/>
<path d="M344.561 408.393C337.049 414.164 319.869 404.474 306.208 386.718C292.547 368.975 287.563 349.898 295.075 344.113C302.588 338.328 319.754 348.032 333.429 365.789C347.089 383.531 352.088 402.608 344.561 408.393Z" stroke="white" stroke-width="1.31" stroke-miterlimit="10"/>
<path d="M349.445 412.742C349.072 413.03 348.698 413.274 348.282 413.503C355.593 405.895 349.704 384.722 334.52 364.999C319.351 345.304 300.405 334.194 291.168 339.261C291.484 338.931 291.815 338.629 292.174 338.357C301.051 331.524 321.09 342.634 336.905 363.176C352.72 383.717 358.337 405.91 349.459 412.742H349.445Z" fill="black"/>
<path d="M307.773 385.57C295.807 370.024 291.556 353.214 298.278 348.047C299.197 347.343 300.26 346.898 301.467 346.683C309.08 345.305 321.807 353.401 332.15 366.837C342.492 380.273 347.074 394.642 343.785 401.632C343.268 402.738 342.55 403.656 341.645 404.36C334.922 409.528 319.753 401.13 307.787 385.57H307.773Z" fill="url(#paint54_radial_66_24)"/>
<path d="M310.546 383.445C298.867 368.272 294.702 351.865 301.281 346.826C301.338 346.783 301.41 346.726 301.467 346.683C309.081 345.305 321.808 353.401 332.15 366.837C342.493 380.273 347.075 394.642 343.785 401.632C343.728 401.69 343.656 401.733 343.599 401.776C337.034 406.829 322.239 398.618 310.546 383.445V383.445Z" fill="url(#paint55_radial_66_24)"/>
<path d="M357.13 435.811C354.027 436.227 350.867 435.811 347.836 435.065C344.805 434.304 341.875 433.156 339.045 431.821C333.4 429.093 328.157 425.605 323.23 421.772C318.288 417.925 313.649 413.705 309.282 409.226C304.843 404.805 301.008 399.853 296.957 395.087C289.258 385.225 282.621 374.517 277.493 363.105C274.965 357.392 272.81 351.477 271.46 345.362C270.814 342.305 270.34 339.204 270.225 336.075C270.11 332.96 270.34 329.788 271.23 326.787C270.397 329.802 270.225 332.96 270.397 336.061C270.569 339.176 271.101 342.247 271.79 345.291C273.184 351.363 275.353 357.234 277.924 362.918C283.095 374.258 289.789 384.895 297.503 394.671C301.511 399.436 305.303 404.403 309.698 408.839C314.022 413.317 318.619 417.552 323.517 421.413C328.415 425.26 333.615 428.763 339.203 431.519C341.99 432.897 344.891 434.089 347.894 434.907C350.896 435.711 354.042 436.184 357.144 435.825L357.13 435.811Z" fill="white"/>
<path d="M312.413 385.785C311.781 385.024 311.149 384.235 310.531 383.445C298.853 368.258 294.702 351.865 301.252 346.826L301.453 346.683C305.245 345.994 310.345 347.673 315.76 351.205C320.931 354.592 326.447 359.659 331.432 365.975C323.445 367.325 313.72 371.847 312.413 385.799V385.785Z" fill="url(#paint56_linear_66_24)"/>
<path d="M147.322 154.503L233.782 302.456C236.066 306.36 234.572 313.05 230.45 317.485L148.127 406.054C143.113 411.451 136.362 413.001 133.073 409.427L4.26593 269.412C-1.29314 263.368 0.416236 253.449 8.08689 247.435L130.056 151.617C135.974 146.966 143.702 148.316 147.322 154.503Z" fill="url(#paint57_radial_66_24)"/>
<path d="M147.322 154.503L233.782 302.456C236.066 306.36 234.572 313.05 230.45 317.485L148.127 406.054C143.113 411.451 136.362 413.001 133.073 409.427L4.26593 269.412C-1.29314 263.368 0.416236 253.449 8.08689 247.435L130.056 151.617C135.974 146.966 143.702 148.316 147.322 154.503Z" stroke="white" stroke-width="0.47" stroke-miterlimit="10"/>
<path d="M147.322 154.503L177.976 206.954C134.48 281.972 114.672 345.204 106.326 380.344L4.26593 269.412C-1.29314 263.368 0.416237 253.449 8.08689 247.435L130.056 151.617C135.974 146.966 143.702 148.316 147.322 154.503Z" fill="url(#paint58_linear_66_24)"/>
<path d="M147.322 154.503L177.976 206.954C134.48 281.972 114.672 345.204 106.326 380.344L4.26593 269.412C-1.29314 263.368 0.416237 253.449 8.08689 247.435L130.056 151.617C135.974 146.966 143.702 148.316 147.322 154.503Z" fill="url(#paint59_linear_66_24)"/>
<path fill-rule="evenodd" clip-rule="evenodd" d="M138.488 266.383C143.487 261.804 150.052 261.789 153.083 266.268C155.051 269.168 155.022 273.359 154.304 277.35C152.451 287.642 150.756 293.312 150.497 303.676C142.008 302.571 136.247 302.93 126.494 303.59C123.19 303.82 118.981 302.585 116.913 299.915C113.494 295.523 115.002 287.9 120.26 283.092C124.813 278.929 130.631 278.269 134.179 281.139C132.369 276.661 134.078 270.431 138.503 266.383H138.488Z" fill="white"/>
<path fill-rule="evenodd" clip-rule="evenodd" d="M138.057 265.78C143.07 261.201 149.635 261.201 152.68 265.679C154.648 268.579 154.619 272.785 153.901 276.776C152.048 287.068 150.353 292.767 150.08 303.131C141.576 302.011 135.802 302.384 126.034 303.03C122.73 303.246 118.507 302.011 116.424 299.341C112.991 294.934 114.499 287.312 119.771 282.503C124.325 278.34 130.157 277.68 133.719 280.565C131.909 276.087 133.618 269.842 138.057 265.794V265.78Z" fill="#BB1338"/>
<path fill-rule="evenodd" clip-rule="evenodd" d="M41.5132 274.019C43.2513 272.569 45.6502 272.526 46.8568 273.933C47.6469 274.852 47.7043 276.187 47.5032 277.464C46.9861 280.766 46.4546 282.589 46.5408 285.934C43.3662 285.503 41.2547 285.575 37.7497 285.69C36.5862 285.733 35.0779 285.302 34.3166 284.455C33.0669 283.063 33.4978 280.708 35.2647 279.23C36.8017 277.938 38.8558 277.737 40.163 278.641C39.4447 277.235 39.9619 275.297 41.4989 274.019H41.5132Z" fill="white"/>
<path d="M28.9151 269.397L31.8598 274.407L28.2112 277.436L15.2688 255.014L20.282 251.009L40.7802 267.014L37.1603 270.029L32.6068 266.397L28.9438 269.412L28.9151 269.397ZM21.6897 257.512L27.019 266.167L29.6333 264.029L21.6754 257.512H21.6897Z" fill="white"/>
<path fill-rule="evenodd" clip-rule="evenodd" d="M41.068 273.517C42.8061 272.067 45.2049 272.024 46.4116 273.431C47.2016 274.35 47.2591 275.685 47.0723 276.962C46.5552 280.264 46.0237 282.087 46.1099 285.446C42.921 285.015 40.8238 285.073 37.3188 285.202C36.1409 285.245 34.647 284.814 33.8857 283.967C32.636 282.575 33.0669 280.221 34.8338 278.742C36.3708 277.45 38.4249 277.249 39.7464 278.154C39.0282 276.747 39.5453 274.795 41.0823 273.517H41.068Z" fill="#BB1338"/>
<path d="M28.4558 268.88L31.4005 273.89L27.7376 276.919L14.7808 254.454L19.794 250.449L40.3209 266.483L36.6866 269.498L32.1187 265.852L28.4414 268.866L28.4558 268.88ZM21.2161 256.966L26.5597 265.636L29.1884 263.497L21.2161 256.966V256.966Z" fill="#BB1338"/>
<path fill-rule="evenodd" clip-rule="evenodd" d="M213.801 299.571C212.695 300.705 211.287 300.805 210.641 299.786C210.224 299.111 210.253 298.092 210.454 297.116C210.942 294.59 211.373 293.183 211.517 290.599C213.384 290.915 214.62 290.857 216.674 290.743C217.349 290.7 218.182 291.015 218.555 291.647C219.173 292.681 218.785 294.432 217.694 295.551C216.746 296.542 215.553 296.729 214.849 296.068C215.18 297.102 214.763 298.58 213.801 299.571V299.571Z" fill="white"/>
<path d="M220.638 302.6L219.317 299.04L221.529 296.743L226.973 312.145L224.129 315.174L213.83 304.753L216.085 302.413L218.441 304.911L220.653 302.6H220.638ZM223.784 310.753L221.472 304.853L219.906 306.49L223.784 310.739V310.753Z" fill="white"/>
<path fill-rule="evenodd" clip-rule="evenodd" d="M213.988 299.887C212.882 301.021 211.474 301.121 210.842 300.102C210.425 299.427 210.454 298.408 210.655 297.432C211.143 294.906 211.574 293.499 211.718 290.915C213.585 291.231 214.821 291.159 216.861 291.044C217.536 291.001 218.369 291.317 218.742 291.949C219.36 292.982 218.972 294.733 217.88 295.853C216.932 296.843 215.74 297.03 215.036 296.384C215.367 297.418 214.95 298.896 213.988 299.887V299.887Z" fill="#BB1338"/>
<path d="M220.825 302.901L219.503 299.341L221.701 297.044L227.131 312.447L224.287 315.476L213.987 305.069L216.243 302.714L218.584 305.212L220.796 302.901H220.825ZM223.971 311.04L221.658 305.155L220.092 306.791L223.956 311.04H223.971Z" fill="#BB1338"/>
<path d="M408.699 134.147C408.125 134.305 407.564 134.463 406.99 134.621C394.406 137.951 381.909 138.195 370.648 135.855C359.96 133.645 350.408 129.123 342.938 122.735C335.972 116.764 330.858 109.185 328.373 100.313C330.7 106.17 334.607 111.237 339.706 115.4C346.932 121.314 356.57 125.362 367.516 127.157C378.778 129.008 391.404 128.477 404.217 125.075C405.051 124.86 405.869 124.63 406.688 124.386C418.539 120.912 428.982 115.386 437.299 108.625C446.449 101.189 453.057 92.246 456.174 82.9012C458.472 76.0253 458.889 68.9484 457.065 62.0726C456.935 61.5988 456.806 61.1108 456.662 60.6371C457.251 62.1587 457.754 63.7233 458.185 65.3167C460.512 74.0874 459.995 83.0734 457.136 91.6001C453.847 101.404 447.469 110.591 438.735 118.127C430.562 125.19 420.363 130.803 408.714 134.133L408.699 134.147Z" fill="#BB1338"/>
<path d="M406.674 124.386C405.855 124.63 405.036 124.86 404.203 125.075C391.39 128.463 378.764 129.008 367.502 127.157C356.556 125.362 346.917 121.3 339.692 115.4C333.501 110.347 329.077 103.945 327.08 96.4377C326.592 94.6003 326.261 92.7342 326.089 90.8681C325.371 83.0448 327.353 75.121 331.519 67.6709C336.087 59.5175 343.254 51.967 352.39 45.7945C360.118 40.5694 369.225 36.3347 379.338 33.6073C379.539 33.5499 379.74 33.4925 379.941 33.4494C391.16 30.4924 402.235 29.7029 412.376 30.7938C422.116 31.8417 430.993 34.6265 438.276 38.8755C446.463 43.6413 452.655 50.2731 455.844 58.3691C456.318 59.5749 456.734 60.8238 457.065 62.087C458.889 68.9629 458.458 76.0397 456.174 82.9156C453.057 92.2605 446.449 101.189 437.299 108.639C428.982 115.4 418.553 120.927 406.688 124.401L406.674 124.386Z" fill="#BB1338"/>
<path d="M399.563 107.448C375.891 113.706 353.137 105.309 348.742 88.686C344.332 72.0633 359.96 53.5171 383.633 47.2585C407.306 40.9999 430.059 49.4117 434.455 66.02C438.85 82.6427 423.236 101.189 399.563 107.448Z" fill="#BB1338"/>
<path d="M426.425 48.0766C421.11 44.8181 414.589 42.6505 407.406 41.7749L412.391 30.7936C422.13 31.8415 431.007 34.6263 438.29 38.8753L426.425 48.0909V48.0766Z" fill="url(#paint60_linear_66_24)"/>
<path d="M361.957 53.0004L352.391 45.7944C360.119 40.5693 369.226 36.3347 379.338 33.6073L381.996 43.8135C374.469 45.8805 367.674 49.0673 361.957 53.0148V53.0004Z" fill="url(#paint61_linear_66_24)"/>
<path d="M342.996 87.1644L326.103 90.8679C325.385 83.0446 327.367 75.1208 331.533 67.6708L346.759 69.2067C343.599 74.9773 342.206 81.1354 343.01 87.1787L342.996 87.1644Z" fill="url(#paint62_linear_66_24)"/>
<path d="M367.516 127.156C356.571 125.362 346.932 121.3 339.707 115.4L353.712 104.921C359.17 109.141 366.353 111.984 374.44 113.189L367.531 127.156H367.516Z" fill="url(#paint63_linear_66_24)"/>
<path d="M406.674 124.386L402.623 110.95C411.227 108.41 418.812 104.39 424.888 99.481L437.285 108.611C428.968 115.372 418.539 120.898 406.674 124.372V124.386Z" fill="url(#paint64_linear_66_24)"/>
<path d="M456.16 82.9011L438.822 80.8053C440.66 75.5659 441.034 70.1398 439.641 64.886C439.511 64.398 439.368 63.9099 439.21 63.4362L455.844 58.369C456.318 59.5748 456.734 60.8237 457.065 62.0869C458.889 68.9628 458.458 76.0396 456.174 82.9155L456.16 82.9011Z" fill="url(#paint65_linear_66_24)"/>
<path d="M355.148 92.16L357.964 90.6097C359.285 93.0212 361.196 95.1888 363.638 97.0262L361.699 99.5957C358.898 97.4855 356.685 94.9878 355.148 92.16V92.16ZM352.577 82.5136C352.52 79.2982 353.195 76.0253 354.588 72.8099L357.547 74.0874C356.341 76.8866 355.752 79.7001 355.795 82.4706L352.577 82.528V82.5136ZM370.332 104.16L371.409 101.132C374.11 102.093 377.04 102.739 380.128 103.07L379.784 106.271C376.451 105.912 373.276 105.194 370.346 104.16H370.332ZM359.831 64.5847C361.871 62.2305 364.27 60.0486 366.985 58.082L368.867 60.6802C366.353 62.5032 364.141 64.5129 362.259 66.6804L359.831 64.5847V64.5847ZM389.379 106.371L389.106 103.17C392.065 102.912 395.053 102.395 397.998 101.62H398.041L398.874 104.72H398.817C395.699 105.567 392.525 106.113 389.379 106.385V106.371ZM376.638 56.1585L375.287 53.2445C378.146 51.9239 381.191 50.8329 384.308 50.0003L385.127 53.1009C382.182 53.8761 379.324 54.9096 376.638 56.1585V56.1585ZM407.895 101.476L406.545 98.5621C406.846 98.4186 407.148 98.275 407.435 98.1315C409.877 96.9401 412.19 95.562 414.301 94.0261L416.198 96.6243C413.928 98.2607 411.457 99.7392 408.843 101.017C408.527 101.175 408.211 101.318 407.895 101.476V101.476ZM394.019 51.565L393.746 48.3639C397.007 48.0912 400.239 48.1199 403.356 48.45L403.011 51.6511C400.095 51.3353 397.078 51.3066 394.019 51.565ZM420.909 88.0258C422.949 85.6717 424.529 83.1739 425.621 80.6188L428.58 81.882C427.359 84.7386 425.592 87.5234 423.337 90.1216L420.909 88.0258ZM411.73 53.589L412.808 50.5602C416.054 51.7085 418.97 53.2445 421.455 55.1106L419.516 57.6801C417.289 56.0006 414.675 54.6369 411.73 53.589V53.589ZM427.373 72.25C427.344 70.8289 427.158 69.4222 426.799 68.0729C426.44 66.6948 425.894 65.3455 425.204 64.0966L428.02 62.5463C428.824 64.0248 429.485 65.6182 429.916 67.2546C430.347 68.8624 430.576 70.5275 430.605 72.1926L427.388 72.25H427.373Z" fill="#F5F5F5"/>
<path d="M397.366 99.165C380.214 103.701 363.71 97.6147 360.521 85.5568C357.332 73.5132 368.651 60.0629 385.817 55.5268C402.982 50.9907 419.473 57.0771 422.662 69.135C425.851 81.1786 414.531 94.6289 397.366 99.165Z" fill="#BB1338"/>
<path d="M419.688 84.2075C413.281 74.9631 399.578 68.7762 383.863 69.1494C375.388 69.3504 367.588 71.4318 361.268 74.8051C364.514 66.3646 373.707 58.7279 385.817 55.5268C402.968 50.9908 419.458 57.0915 422.662 69.1351C423.997 74.1592 422.791 79.4417 419.688 84.2075V84.2075Z" fill="url(#paint66_linear_66_24)"/>
<path d="M397.366 99.1649C381.234 103.428 365.692 98.3036 361.239 87.6668C366.568 97.1409 381.292 101.505 396.532 97.471C413.698 92.9349 425.017 79.4846 421.828 67.4411C421.627 66.7233 421.397 66.02 421.11 65.3309C421.771 66.5224 422.288 67.7856 422.647 69.1349C425.836 81.1785 414.517 94.6288 397.351 99.1649H397.366Z" fill="#BB1338"/>
<path d="M457.122 91.6001L456.16 82.9012C458.458 76.0253 458.875 68.9484 457.05 62.0726C456.921 61.5988 456.792 61.1108 456.648 60.6371C457.237 62.1587 457.74 63.7233 458.171 65.3167C460.498 74.0874 459.981 83.0734 457.122 91.6001Z" fill="url(#paint67_linear_66_24)"/>
<path d="M408.699 134.147L406.688 124.386C418.539 120.912 428.982 115.386 437.299 108.625L438.735 118.142C430.562 125.204 420.363 130.817 408.714 134.147H408.699Z" fill="url(#paint68_linear_66_24)"/>
<path d="M370.648 135.856C359.96 133.645 350.408 129.123 342.938 122.735L339.692 115.4C346.917 121.314 356.556 125.362 367.502 127.157L370.633 135.856H370.648Z" fill="url(#paint69_linear_66_24)"/>
<path d="M456.16 82.9015C456.16 82.9015 455.987 83.4039 455.657 84.3513C455.484 84.825 455.24 85.3992 454.982 86.0739C454.852 86.4184 454.68 86.7629 454.508 87.1505C454.335 87.5237 454.163 87.94 453.947 88.3563C453.143 90.0501 452.037 92.0454 450.615 94.2273C449.178 96.4092 447.412 98.7777 445.257 101.175C443.117 103.572 440.603 105.998 437.759 108.352C437.414 108.654 437.04 108.941 436.667 109.228C436.293 109.515 435.934 109.802 435.547 110.089C434.8 110.663 434.053 111.266 433.248 111.797C432.458 112.343 431.639 112.903 430.835 113.463C430.002 113.994 429.154 114.51 428.307 115.042C427.876 115.3 427.459 115.573 427.014 115.831C426.569 116.075 426.123 116.319 425.678 116.563C425.233 116.807 424.787 117.066 424.328 117.31C423.868 117.554 423.437 117.826 422.963 118.042C422.029 118.501 421.096 118.96 420.162 119.42L419.458 119.764L418.726 120.08C418.252 120.295 417.763 120.496 417.275 120.712C415.35 121.587 413.339 122.291 411.342 123.037C410.337 123.382 409.317 123.697 408.283 124.028L406.746 124.516L405.194 124.961L404.419 125.176C404.146 125.262 403.901 125.305 403.629 125.363L402.063 125.736L400.497 126.109C399.98 126.224 399.463 126.367 398.931 126.454C396.82 126.827 394.737 127.272 392.64 127.501C388.46 128.119 384.294 128.291 380.272 128.32C379.266 128.291 378.261 128.262 377.284 128.233C376.781 128.219 376.293 128.233 375.804 128.176C375.316 128.133 374.828 128.104 374.354 128.061C373.391 127.975 372.429 127.918 371.495 127.817C370.561 127.688 369.628 127.559 368.723 127.43C365.074 126.927 361.67 126.123 358.581 125.205C355.493 124.272 352.749 123.195 350.379 122.09C348.009 120.984 346.027 119.85 344.447 118.846C344.045 118.602 343.671 118.357 343.326 118.128C342.982 117.884 342.651 117.683 342.364 117.467C341.775 117.037 341.272 116.678 340.87 116.362C340.08 115.745 339.663 115.415 339.663 115.415C339.663 115.415 340.08 115.745 340.87 116.362C341.272 116.664 341.775 117.023 342.364 117.453C342.666 117.654 342.996 117.869 343.341 118.099C343.685 118.329 344.059 118.573 344.461 118.817C346.056 119.807 348.038 120.913 350.408 122.004C352.778 123.095 355.536 124.142 358.61 125.061C361.684 125.98 365.074 126.769 368.723 127.257C369.628 127.387 370.561 127.501 371.495 127.631C372.429 127.731 373.391 127.788 374.354 127.875C374.842 127.918 375.316 127.946 375.804 127.989C376.293 128.047 376.781 128.018 377.27 128.047C378.246 128.076 379.252 128.09 380.243 128.119C384.251 128.061 388.402 127.889 392.568 127.257C394.665 127.028 396.734 126.568 398.831 126.195C399.362 126.109 399.879 125.965 400.397 125.851L401.962 125.477L403.528 125.104C403.787 125.032 404.059 124.989 404.304 124.918L405.079 124.702L406.631 124.272L408.153 123.784C409.173 123.453 410.193 123.152 411.199 122.807C413.195 122.061 415.206 121.372 417.117 120.496C417.605 120.295 418.079 120.08 418.568 119.879L419.286 119.578L419.99 119.233C420.923 118.774 421.857 118.314 422.791 117.869C423.265 117.654 423.696 117.396 424.155 117.152C424.601 116.908 425.06 116.649 425.506 116.42C425.951 116.176 426.396 115.932 426.842 115.688C427.287 115.429 427.703 115.171 428.134 114.898C428.982 114.367 429.844 113.85 430.677 113.333C431.481 112.774 432.286 112.228 433.09 111.683C433.895 111.151 434.642 110.563 435.403 109.989C435.776 109.702 436.15 109.415 436.523 109.127C436.897 108.84 437.256 108.568 437.615 108.266C440.445 105.926 442.973 103.515 445.113 101.132C447.254 98.7347 449.049 96.4092 450.5 94.2417C451.951 92.0741 453.071 90.0932 453.89 88.3993C454.105 87.983 454.278 87.5811 454.45 87.1935C454.623 86.806 454.795 86.4614 454.924 86.1313C455.197 85.4566 455.456 84.8968 455.614 84.4231C455.958 83.4757 456.145 82.9733 456.145 82.9733L456.16 82.9015Z" fill="white"/>
<defs>
<radialGradient id="paint0_radial_66_24" cx="0" cy="0" r="1" gradientUnits="userSpaceOnUse" gradientTransform="translate(89.4999 162.577) rotate(51.7509) scale(52.7529 52.7614)">
<stop offset="0.7" stop-color="#222222"/>
<stop offset="0.81" stop-color="#1F1F1F"/>
<stop offset="0.88" stop-color="#171717"/>
<stop offset="0.93" stop-color="#0A0A0A"/>
<stop offset="0.95"/>
</radialGradient>
<radialGradient id="paint1_radial_66_24" cx="0" cy="0" r="1" gradientUnits="userSpaceOnUse" gradientTransform="translate(58.0643 104.658) rotate(-51.9809) scale(77.4635 77.4764)">
<stop offset="0.7" stop-color="#222222"/>
<stop offset="0.81" stop-color="#1F1F1F"/>
<stop offset="0.88" stop-color="#171717"/>
<stop offset="0.93" stop-color="#0A0A0A"/>
<stop offset="0.95"/>
</radialGradient>
<radialGradient id="paint2_radial_66_24" cx="0" cy="0" r="1" gradientUnits="userSpaceOnUse" gradientTransform="translate(21.487 173.449) rotate(51.7509) scale(118.156 118.175)">
<stop offset="0.05"/>
<stop offset="1" stop-color="#222222"/>
</radialGradient>
<linearGradient id="paint3_linear_66_24" x1="88.1416" y1="107.363" x2="101.361" y2="87.2338" gradientUnits="userSpaceOnUse">
<stop stop-color="white"/>
<stop offset="0.29" stop-color="#EDEDED"/>
<stop offset="1" stop-color="white"/>
</linearGradient>
<linearGradient id="paint4_linear_66_24" x1="36.9493" y1="124.053" x2="52.2092" y2="100.853" gradientUnits="userSpaceOnUse">
<stop stop-color="white"/>
<stop offset="0.29" stop-color="#EDEDED"/>
<stop offset="1" stop-color="white"/>
</linearGradient>
<linearGradient id="paint5_linear_66_24" x1="11.2329" y1="167.377" x2="27.6649" y2="142.394" gradientUnits="userSpaceOnUse">
<stop stop-color="white"/>
<stop offset="0.29" stop-color="#EDEDED"/>
<stop offset="1" stop-color="white"/>
</linearGradient>
<linearGradient id="paint6_linear_66_24" x1="42.8665" y1="197.113" x2="57.3195" y2="175.117" gradientUnits="userSpaceOnUse">
<stop stop-color="white"/>
<stop offset="0.29" stop-color="#EDEDED"/>
<stop offset="1" stop-color="white"/>
</linearGradient>
<linearGradient id="paint7_linear_66_24" x1="97.6459" y1="183.465" x2="115.692" y2="155.985" gradientUnits="userSpaceOnUse">
<stop stop-color="white"/>
<stop offset="0.29" stop-color="#EDEDED"/>
<stop offset="1" stop-color="white"/>
</linearGradient>
<linearGradient id="paint8_linear_66_24" x1="121.403" y1="135.104" x2="136.704" y2="111.817" gradientUnits="userSpaceOnUse">
<stop stop-color="white"/>
<stop offset="0.29" stop-color="#EDEDED"/>
<stop offset="1" stop-color="white"/>
</linearGradient>
<linearGradient id="paint9_linear_66_24" x1="100.764" y1="129.015" x2="48.2768" y2="152.848" gradientUnits="userSpaceOnUse">
<stop offset="0.24" stop-color="#222222"/>
<stop offset="0.53" stop-color="#121212"/>
<stop offset="0.95"/>
</linearGradient>
<linearGradient id="paint10_linear_66_24" x1="12.7099" y1="134.972" x2="74.2489" y2="141.44" gradientUnits="userSpaceOnUse">
<stop stop-color="white"/>
<stop offset="1" stop-color="white" stop-opacity="0"/>
</linearGradient>
<linearGradient id="paint11_linear_66_24" x1="128.749" y1="115.287" x2="146.094" y2="137.321" gradientUnits="userSpaceOnUse">
<stop stop-color="#DCDCDC"/>
<stop offset="0.29" stop-color="#B6B6B6"/>
<stop offset="1" stop-color="#A1A1A1"/>
</linearGradient>
<linearGradient id="paint12_linear_66_24" x1="110.671" y1="173.613" x2="117.892" y2="182.786" gradientUnits="userSpaceOnUse">
<stop stop-color="#DCDCDC"/>
<stop offset="0.29" stop-color="#B6B6B6"/>
<stop offset="1" stop-color="#A1A1A1"/>
</linearGradient>
<linearGradient id="paint13_linear_66_24" x1="38.8885" y1="183.415" x2="58.6588" y2="208.528" gradientUnits="userSpaceOnUse">
<stop stop-color="#DCDCDC"/>
<stop offset="0.29" stop-color="#B6B6B6"/>
<stop offset="1" stop-color="#A1A1A1"/>
</linearGradient>
<radialGradient id="paint14_radial_66_24" cx="0" cy="0" r="1" gradientUnits="userSpaceOnUse" gradientTransform="translate(309.193 25.8141) rotate(20.3672) scale(190.573 190.473)">
<stop offset="0.15" stop-color="white"/>
<stop offset="0.9" stop-color="#DCDCDC"/>
</radialGradient>
<linearGradient id="paint15_linear_66_24" x1="282.755" y1="7.48485" x2="264.047" y2="197.201" gradientUnits="userSpaceOnUse">
<stop stop-color="white"/>
<stop offset="1" stop-color="white" stop-opacity="0"/>
</linearGradient>
<linearGradient id="paint16_linear_66_24" x1="282.755" y1="7.48485" x2="264.047" y2="197.201" gradientUnits="userSpaceOnUse">
<stop stop-color="white"/>
<stop offset="1" stop-color="white" stop-opacity="0"/>
</linearGradient>
<radialGradient id="paint17_radial_66_24" cx="0" cy="0" r="1" gradientUnits="userSpaceOnUse" gradientTransform="translate(265.95 129.357) rotate(20.3672) scale(39.4991 39.4786)">
<stop stop-color="#545454"/>
<stop offset="0.21" stop-color="#515151"/>
<stop offset="0.35" stop-color="#484848"/>
<stop offset="0.47" stop-color="#393939"/>
<stop offset="0.58" stop-color="#232323"/>
<stop offset="0.68" stop-color="#070707"/>
<stop offset="0.71"/>
</radialGradient>
<linearGradient id="paint18_linear_66_24" x1="244.307" y1="8.43292" x2="232.566" y2="40.06" gradientUnits="userSpaceOnUse">
<stop stop-color="#545454"/>
<stop offset="0.21" stop-color="#515151"/>
<stop offset="0.35" stop-color="#484848"/>
<stop offset="0.47" stop-color="#393939"/>
<stop offset="0.58" stop-color="#232323"/>
<stop offset="0.68" stop-color="#070707"/>
<stop offset="0.71"/>
</linearGradient>
<radialGradient id="paint19_radial_66_24" cx="0" cy="0" r="1" gradientUnits="userSpaceOnUse" gradientTransform="translate(232.243 42.0382) rotate(20.3672) scale(9.81015 9.80505)">
<stop stop-color="#545454"/>
<stop offset="0.21" stop-color="#515151"/>
<stop offset="0.35" stop-color="#484848"/>
<stop offset="0.47" stop-color="#393939"/>
<stop offset="0.58" stop-color="#232323"/>
<stop offset="0.68" stop-color="#070707"/>
<stop offset="0.71"/>
</radialGradient>
<linearGradient id="paint20_linear_66_24" x1="281.447" y1="265.616" x2="293.188" y2="233.989" gradientUnits="userSpaceOnUse">
<stop stop-color="#545454"/>
<stop offset="0.21" stop-color="#515151"/>
<stop offset="0.35" stop-color="#484848"/>
<stop offset="0.47" stop-color="#393939"/>
<stop offset="0.58" stop-color="#232323"/>
<stop offset="0.68" stop-color="#070707"/>
<stop offset="0.71"/>
</linearGradient>
<radialGradient id="paint21_radial_66_24" cx="0" cy="0" r="1" gradientUnits="userSpaceOnUse" gradientTransform="translate(293.858 232.204) rotate(-159.633) scale(9.82451 9.8194)">
<stop stop-color="#545454"/>
<stop offset="0.21" stop-color="#515151"/>
<stop offset="0.35" stop-color="#484848"/>
<stop offset="0.47" stop-color="#393939"/>
<stop offset="0.58" stop-color="#232323"/>
<stop offset="0.68" stop-color="#070707"/>
<stop offset="0.71"/>
</radialGradient>
<radialGradient id="paint22_radial_66_24" cx="0" cy="0" r="1" gradientUnits="userSpaceOnUse" gradientTransform="translate(191.444 446.124) rotate(-90.04) scale(186.094 186.222)">
<stop offset="0.15" stop-color="white"/>
<stop offset="0.9" stop-color="#DCDCDC"/>
</radialGradient>
<linearGradient id="paint23_linear_66_24" x1="180.093" y1="503.063" x2="338.074" y2="461.328" gradientUnits="userSpaceOnUse">
<stop stop-color="white"/>
<stop offset="1" stop-color="white" stop-opacity="0"/>
</linearGradient>
<linearGradient id="paint24_linear_66_24" x1="180.093" y1="503.063" x2="338.074" y2="461.328" gradientUnits="userSpaceOnUse">
<stop stop-color="white"/>
<stop offset="1" stop-color="white" stop-opacity="0"/>
</linearGradient>
<radialGradient id="paint25_radial_66_24" cx="0" cy="0" r="1" gradientUnits="userSpaceOnUse" gradientTransform="translate(280.475 466.69) rotate(-90.04) scale(33.4176 33.4406)">
<stop stop-color="#545454"/>
<stop offset="0.21" stop-color="#515151"/>
<stop offset="0.35" stop-color="#484848"/>
<stop offset="0.47" stop-color="#393939"/>
<stop offset="0.58" stop-color="#232323"/>
<stop offset="0.68" stop-color="#070707"/>
<stop offset="0.71"/>
</radialGradient>
<linearGradient id="paint26_linear_66_24" x1="195.521" y1="545.182" x2="218.748" y2="545.166" gradientUnits="userSpaceOnUse">
<stop stop-color="#545454"/>
<stop offset="0.21" stop-color="#515151"/>
<stop offset="0.35" stop-color="#484848"/>
<stop offset="0.47" stop-color="#393939"/>
<stop offset="0.58" stop-color="#232323"/>
<stop offset="0.68" stop-color="#070707"/>
<stop offset="0.71"/>
</linearGradient>
<radialGradient id="paint27_radial_66_24" cx="0" cy="0" r="1" gradientUnits="userSpaceOnUse" gradientTransform="translate(221.059 542.94) rotate(-90.04) scale(8.4549 8.4607)">
<stop stop-color="#545454"/>
<stop offset="0.21" stop-color="#515151"/>
<stop offset="0.35" stop-color="#484848"/>
<stop offset="0.47" stop-color="#393939"/>
<stop offset="0.58" stop-color="#232323"/>
<stop offset="0.68" stop-color="#070707"/>
<stop offset="0.71"/>
</radialGradient>
<linearGradient id="paint28_linear_66_24" x1="401.872" y1="368.09" x2="362.269" y2="368.118" gradientUnits="userSpaceOnUse">
<stop stop-color="#545454"/>
<stop offset="0.21" stop-color="#515151"/>
<stop offset="0.35" stop-color="#484848"/>
<stop offset="0.47" stop-color="#393939"/>
<stop offset="0.58" stop-color="#232323"/>
<stop offset="0.68" stop-color="#070707"/>
<stop offset="0.71"/>
</linearGradient>
<radialGradient id="paint29_radial_66_24" cx="0" cy="0" r="1" gradientUnits="userSpaceOnUse" gradientTransform="translate(358.528 378.351) rotate(89.96) scale(11.2253 11.2331)">
<stop stop-color="#545454"/>
<stop offset="0.21" stop-color="#515151"/>
<stop offset="0.35" stop-color="#484848"/>
<stop offset="0.47" stop-color="#393939"/>
<stop offset="0.58" stop-color="#232323"/>
<stop offset="0.68" stop-color="#070707"/>
<stop offset="0.71"/>
</radialGradient>
<radialGradient id="paint30_radial_66_24" cx="0" cy="0" r="1" gradientUnits="userSpaceOnUse" gradientTransform="translate(193.47 486.575) rotate(-23.4756) scale(116.011 75.9714)">
<stop/>
<stop offset="1" stop-color="white" stop-opacity="0"/>
</radialGradient>
<radialGradient id="paint31_radial_66_24" cx="0" cy="0" r="1" gradientUnits="userSpaceOnUse" gradientTransform="translate(506.666 224.83) rotate(32.6921) scale(152.305 152.262)">
<stop offset="0.15" stop-color="white"/>
<stop offset="0.9" stop-color="#DCDCDC"/>
</radialGradient>
<linearGradient id="paint32_linear_66_24" x1="468.466" y1="189.702" x2="430.335" y2="307.377" gradientUnits="userSpaceOnUse">
<stop stop-color="white"/>
<stop offset="1" stop-color="white" stop-opacity="0"/>
</linearGradient>
<linearGradient id="paint33_linear_66_24" x1="468.466" y1="189.702" x2="430.335" y2="307.377" gradientUnits="userSpaceOnUse">
<stop stop-color="white"/>
<stop offset="1" stop-color="white" stop-opacity="0"/>
</linearGradient>
<linearGradient id="paint34_linear_66_24" x1="154.306" y1="459.416" x2="177.642" y2="455.94" gradientUnits="userSpaceOnUse">
<stop stop-color="white"/>
<stop offset="0.29" stop-color="#EDEDED"/>
<stop offset="1" stop-color="white"/>
</linearGradient>
<linearGradient id="paint35_linear_66_24" x1="108.695" y1="432.949" x2="135.608" y2="428.951" gradientUnits="userSpaceOnUse">
<stop stop-color="white"/>
<stop offset="0.29" stop-color="#EDEDED"/>
<stop offset="1" stop-color="white"/>
</linearGradient>
<linearGradient id="paint36_linear_66_24" x1="60.2439" y1="442.451" x2="89.2383" y2="438.148" gradientUnits="userSpaceOnUse">
<stop stop-color="white"/>
<stop offset="0.29" stop-color="#EDEDED"/>
<stop offset="1" stop-color="white"/>
</linearGradient>
<linearGradient id="paint37_linear_66_24" x1="59.1413" y1="484.949" x2="84.662" y2="481.157" gradientUnits="userSpaceOnUse">
<stop stop-color="white"/>
<stop offset="0.29" stop-color="#EDEDED"/>
<stop offset="1" stop-color="white"/>
</linearGradient>
<linearGradient id="paint38_linear_66_24" x1="104.876" y1="516.014" x2="136.746" y2="511.283" gradientUnits="userSpaceOnUse">
<stop stop-color="white"/>
<stop offset="0.29" stop-color="#EDEDED"/>
<stop offset="1" stop-color="white"/>
</linearGradient>
<linearGradient id="paint39_linear_66_24" x1="155.732" y1="501.805" x2="182.752" y2="497.782" gradientUnits="userSpaceOnUse">
<stop stop-color="white"/>
<stop offset="0.29" stop-color="#EDEDED"/>
<stop offset="1" stop-color="white"/>
</linearGradient>
<linearGradient id="paint40_linear_66_24" x1="93.3688" y1="442.572" x2="123.512" y2="474.532" gradientUnits="userSpaceOnUse">
<stop stop-color="white"/>
<stop offset="1" stop-color="white" stop-opacity="0"/>
</linearGradient>
<linearGradient id="paint41_linear_66_24" x1="175.02" y1="494.24" x2="170.259" y2="521.285" gradientUnits="userSpaceOnUse">
<stop stop-color="#DCDCDC"/>
<stop offset="0.29" stop-color="#B6B6B6"/>
<stop offset="1" stop-color="#A1A1A1"/>
</linearGradient>
<linearGradient id="paint42_linear_66_24" x1="120.581" y1="519.099" x2="118.597" y2="530.367" gradientUnits="userSpaceOnUse">
<stop stop-color="#DCDCDC"/>
<stop offset="0.29" stop-color="#B6B6B6"/>
<stop offset="1" stop-color="#A1A1A1"/>
</linearGradient>
<linearGradient id="paint43_linear_66_24" x1="66.5666" y1="473.108" x2="61.1414" y2="503.928" gradientUnits="userSpaceOnUse">
<stop stop-color="#DCDCDC"/>
<stop offset="0.29" stop-color="#B6B6B6"/>
<stop offset="1" stop-color="#A1A1A1"/>
</linearGradient>
<radialGradient id="paint44_radial_66_24" cx="0" cy="0" r="1" gradientUnits="userSpaceOnUse" gradientTransform="translate(345.594 464.1) rotate(-23.4756) scale(116.011 75.9714)">
<stop/>
<stop offset="1" stop-color="white" stop-opacity="0"/>
</radialGradient>
<radialGradient id="paint45_radial_66_24" cx="0" cy="0" r="1" gradientUnits="userSpaceOnUse" gradientTransform="translate(399.068 136.11) rotate(-23.4756) scale(113.154 74.1009)">
<stop/>
<stop offset="1" stop-color="white" stop-opacity="0"/>
</radialGradient>
<radialGradient id="paint46_radial_66_24" cx="0" cy="0" r="1" gradientUnits="userSpaceOnUse" gradientTransform="translate(352.12 96.4576) rotate(-23.4856) scale(90.6766 71.8011)">
<stop/>
<stop offset="1" stop-color="white" stop-opacity="0"/>
</radialGradient>
<radialGradient id="paint47_radial_66_24" cx="0" cy="0" r="1" gradientUnits="userSpaceOnUse" gradientTransform="translate(178.132 223.946) rotate(-55.8817) scale(85.3104 75.9989)">
<stop/>
<stop offset="1" stop-color="white" stop-opacity="0"/>
</radialGradient>
<radialGradient id="paint48_radial_66_24" cx="0" cy="0" r="1" gradientUnits="userSpaceOnUse" gradientTransform="translate(320.542 368.75) rotate(54.4414) scale(39.8721 39.881)">
<stop offset="0.7" stop-color="#222222"/>
<stop offset="0.81" stop-color="#1F1F1F"/>
<stop offset="0.88" stop-color="#171717"/>
<stop offset="0.93" stop-color="#0A0A0A"/>
<stop offset="0.95"/>
</radialGradient>
<linearGradient id="paint49_linear_66_24" x1="351.625" y1="435.718" x2="354.536" y2="439.797" gradientUnits="userSpaceOnUse">
<stop stop-color="#DCDCDC"/>
<stop offset="0.29" stop-color="#B6B6B6"/>
<stop offset="1" stop-color="#A1A1A1"/>
</linearGradient>
<linearGradient id="paint50_linear_66_24" x1="302.636" y1="403.513" x2="325.877" y2="436.07" gradientUnits="userSpaceOnUse">
<stop stop-color="#DCDCDC"/>
<stop offset="0.29" stop-color="#B6B6B6"/>
<stop offset="1" stop-color="#A1A1A1"/>
</linearGradient>
<linearGradient id="paint51_linear_66_24" x1="261.303" y1="346.754" x2="281.432" y2="374.952" gradientUnits="userSpaceOnUse">
<stop stop-color="#DCDCDC"/>
<stop offset="0.29" stop-color="#B6B6B6"/>
<stop offset="1" stop-color="#A1A1A1"/>
</linearGradient>
<radialGradient id="paint52_radial_66_24" cx="0" cy="0" r="1" gradientUnits="userSpaceOnUse" gradientTransform="translate(311.144 367.555) rotate(54.4414) scale(65.0273 65.0418)">
<stop offset="0.7" stop-color="#222222"/>
<stop offset="0.81" stop-color="#1F1F1F"/>
<stop offset="0.88" stop-color="#171717"/>
<stop offset="0.93" stop-color="#0A0A0A"/>
<stop offset="0.95"/>
</radialGradient>
<radialGradient id="paint53_radial_66_24" cx="0" cy="0" r="1" gradientUnits="userSpaceOnUse" gradientTransform="translate(320.797 375.553) rotate(54.4414) scale(36.1534 36.1615)">
<stop offset="0.15" stop-color="#222222"/>
<stop offset="0.52" stop-color="#1F1F1F"/>
<stop offset="0.72" stop-color="#171717"/>
<stop offset="0.87" stop-color="#0A0A0A"/>
<stop offset="0.95"/>
</radialGradient>
<radialGradient id="paint54_radial_66_24" cx="0" cy="0" r="1" gradientUnits="userSpaceOnUse" gradientTransform="translate(301.277 386.277) rotate(54.4414) scale(20.8909 20.8955)">
<stop offset="0.7" stop-color="#222222"/>
<stop offset="0.81" stop-color="#1F1F1F"/>
<stop offset="0.88" stop-color="#171717"/>
<stop offset="0.93" stop-color="#0A0A0A"/>
<stop offset="0.95"/>
</radialGradient>
<radialGradient id="paint55_radial_66_24" cx="0" cy="0" r="1" gradientUnits="userSpaceOnUse" gradientTransform="translate(307.57 359.963) rotate(54.4414) scale(66.779 66.7939)">
<stop offset="0.7" stop-color="#222222"/>
<stop offset="0.81" stop-color="#1F1F1F"/>
<stop offset="0.88" stop-color="#171717"/>
<stop offset="0.93" stop-color="#0A0A0A"/>
<stop offset="0.95"/>
</radialGradient>
<linearGradient id="paint56_linear_66_24" x1="288.718" y1="335.122" x2="325.396" y2="380.177" gradientUnits="userSpaceOnUse">
<stop stop-color="white"/>
<stop offset="1" stop-color="white" stop-opacity="0"/>
</linearGradient>
<radialGradient id="paint57_radial_66_24" cx="0" cy="0" r="1" gradientUnits="userSpaceOnUse" gradientTransform="translate(186.252 344.065) rotate(-37.531) scale(217.811 217.773)">
<stop offset="0.15" stop-color="white"/>
<stop offset="0.9" stop-color="#DCDCDC"/>
</radialGradient>
<linearGradient id="paint58_linear_66_24" x1="44.3332" y1="203.171" x2="189.902" y2="315.771" gradientUnits="userSpaceOnUse">
<stop stop-color="white"/>
<stop offset="1" stop-color="white" stop-opacity="0"/>
</linearGradient>
<linearGradient id="paint59_linear_66_24" x1="44.3332" y1="203.171" x2="189.902" y2="315.771" gradientUnits="userSpaceOnUse">
<stop stop-color="white"/>
<stop offset="1" stop-color="white" stop-opacity="0"/>
</linearGradient>
<linearGradient id="paint60_linear_66_24" x1="412.681" y1="47.1588" x2="429.851" y2="30.2877" gradientUnits="userSpaceOnUse">
<stop stop-color="white"/>
<stop offset="0.29" stop-color="#EDEDED"/>
<stop offset="1" stop-color="white"/>
</linearGradient>
<linearGradient id="paint61_linear_66_24" x1="359.12" y1="52.6559" x2="378.94" y2="33.1958" gradientUnits="userSpaceOnUse">
<stop stop-color="white"/>
<stop offset="0.29" stop-color="#EDEDED"/>
<stop offset="1" stop-color="white"/>
</linearGradient>
<linearGradient id="paint62_linear_66_24" x1="324.809" y1="89.559" x2="346.153" y2="68.604" gradientUnits="userSpaceOnUse">
<stop stop-color="white"/>
<stop offset="0.29" stop-color="#EDEDED"/>
<stop offset="1" stop-color="white"/>
</linearGradient>
<linearGradient id="paint63_linear_66_24" x1="349.408" y1="125.306" x2="368.205" y2="106.857" gradientUnits="userSpaceOnUse">
<stop stop-color="white"/>
<stop offset="0.29" stop-color="#EDEDED"/>
<stop offset="1" stop-color="white"/>
</linearGradient>
<linearGradient id="paint64_linear_66_24" x1="405.837" y1="123.554" x2="429.313" y2="100.519" gradientUnits="userSpaceOnUse">
<stop stop-color="white"/>
<stop offset="0.29" stop-color="#EDEDED"/>
<stop offset="1" stop-color="white"/>
</linearGradient>
<linearGradient id="paint65_linear_66_24" x1="439.3" y1="81.3137" x2="459.198" y2="61.7837" gradientUnits="userSpaceOnUse">
<stop stop-color="white"/>
<stop offset="0.29" stop-color="#EDEDED"/>
<stop offset="1" stop-color="white"/>
</linearGradient>
<linearGradient id="paint66_linear_66_24" x1="406.559" y1="31.3392" x2="388.855" y2="85.8941" gradientUnits="userSpaceOnUse">
<stop stop-color="white"/>
<stop offset="1" stop-color="white" stop-opacity="0"/>
</linearGradient>
<linearGradient id="paint67_linear_66_24" x1="450.696" y1="63.5061" x2="462.978" y2="88.6951" gradientUnits="userSpaceOnUse">
<stop stop-color="#DCDCDC"/>
<stop offset="0.29" stop-color="#B6B6B6"/>
<stop offset="1" stop-color="#A1A1A1"/>
</linearGradient>
<linearGradient id="paint68_linear_66_24" x1="420.654" y1="116.68" x2="425.776" y2="127.184" gradientUnits="userSpaceOnUse">
<stop stop-color="#DCDCDC"/>
<stop offset="0.29" stop-color="#B6B6B6"/>
<stop offset="1" stop-color="#A1A1A1"/>
</linearGradient>
<linearGradient id="paint69_linear_66_24" x1="348.428" y1="111.089" x2="362.428" y2="139.801" gradientUnits="userSpaceOnUse">
<stop stop-color="#DCDCDC"/>
<stop offset="0.29" stop-color="#B6B6B6"/>
<stop offset="1" stop-color="#A1A1A1"/>
</linearGradient>
</defs>
</svg>
