<svg width="657" height="416" viewBox="0 0 657 416" fill="none" xmlns="http://www.w3.org/2000/svg">
<path d="M555.104 5.7145C594.668 2.63533 637.466 63.7012 651.93 145.234C666.42 226.768 647.272 298.805 609.054 309.569L476.443 348.537L416.904 15.4954L555.104 5.7145V5.7145Z" fill="url(#paint0_linear_66_197)"/>
<path d="M402.569 189.869C418.922 281.882 451.499 353.039 475.356 348.796C499.213 344.552 505.32 266.538 488.967 174.525C472.613 82.5125 440.036 11.3553 416.179 15.5988C392.322 19.8424 386.216 97.8565 402.569 189.869V189.869Z" fill="url(#paint1_linear_66_197)"/>
<path d="M405.906 189.274C421.846 279.01 452.611 348.589 474.631 344.682C496.651 340.774 501.568 264.856 485.628 175.12C469.689 85.3846 438.923 15.8058 416.903 19.713C394.884 23.6202 389.967 99.5384 405.906 189.274Z" fill="url(#paint2_radial_66_197)"/>
<path d="M53.976 94.7262C15.784 105.464 -3.36378 177.501 11.1005 259.061C25.5907 340.594 68.3627 401.634 107.926 398.58L245.842 389.498L187.079 56.3013L53.976 94.7262V94.7262Z" fill="url(#paint3_linear_66_197)"/>
<path d="M246.985 389.352C270.849 385.114 276.948 307.093 260.609 215.086C244.27 123.08 211.679 51.9295 187.816 56.1673C163.953 60.4051 157.853 138.427 174.192 230.433C190.531 322.439 223.122 393.59 246.985 389.352Z" fill="url(#paint4_linear_66_197)"/>
<path d="M246.257 385.251C268.277 381.34 273.208 305.42 257.272 215.679C241.335 125.938 210.564 56.3588 188.544 60.2693C166.524 64.1798 161.592 140.099 177.529 229.841C193.466 319.582 224.236 389.161 246.257 385.251Z" fill="url(#paint5_radial_66_197)"/>
<path d="M383.007 0.125577L216.24 29.727C195.152 33.4789 192.927 120.317 211.298 223.714C229.67 327.112 261.652 407.869 282.74 404.143L449.507 374.516C470.595 370.764 472.82 283.926 454.449 180.529C436.077 77.1565 404.095 -3.62635 383.007 0.125577Z" fill="url(#paint6_linear_66_197)"/>
<path style="mix-blend-mode:multiply" d="M390.971 363.515C430.546 334.91 439.439 279.639 410.833 240.064C382.228 200.489 326.957 191.596 287.382 220.202C247.807 248.807 238.914 304.078 267.52 343.653C296.125 383.228 351.396 392.121 390.971 363.515Z" fill="url(#paint7_radial_66_197)"/>
<path style="mix-blend-mode:multiply" d="M435.899 286.098C436.027 237.267 396.546 197.578 347.715 197.45C298.884 197.323 259.195 236.804 259.068 285.635C258.94 334.465 298.421 374.154 347.252 374.282C396.083 374.41 435.771 334.928 435.899 286.098Z" fill="url(#paint8_radial_66_197)"/>
<path style="mix-blend-mode:multiply" d="M452.555 221.245C466.53 174.457 439.93 125.199 393.141 111.224C346.353 97.2488 297.095 123.849 283.12 170.638C269.145 217.426 295.745 266.685 342.534 280.66C389.322 294.634 438.581 268.034 452.555 221.245Z" fill="url(#paint9_radial_66_197)"/>
<path style="mix-blend-mode:multiply" d="M403.12 161.224C411.263 113.077 378.834 67.4446 330.687 59.3011C282.54 51.1576 236.907 83.5869 228.764 131.734C220.62 179.881 253.05 225.513 301.197 233.657C349.344 241.8 394.976 209.371 403.12 161.224Z" fill="url(#paint10_radial_66_197)"/>
<path style="mix-blend-mode:multiply" d="M349.043 211.243C364.925 165.067 340.366 114.759 294.19 98.8775C248.014 82.9958 197.707 107.554 181.825 153.73C165.943 199.906 190.502 250.214 236.678 266.096C282.854 281.977 333.161 257.419 349.043 211.243Z" fill="url(#paint11_radial_66_197)"/>
<path style="mix-blend-mode:multiply" d="M389.755 223.155C437.911 215.062 470.388 169.464 462.295 121.308C454.202 73.1526 408.603 40.6756 360.448 48.7686C312.292 56.8617 279.815 102.46 287.908 150.616C296.001 198.771 341.6 231.248 389.755 223.155Z" fill="url(#paint12_radial_66_197)"/>
<path style="mix-blend-mode:screen" d="M400.059 76.4319L370.147 82.1245L371.441 88.5157L368.077 91.3102C367.637 91.6725 367.171 92.0088 366.757 92.2417C366.24 92.5781 365.645 92.8627 364.998 93.1215C364.48 93.3285 363.885 93.5614 363.135 93.7684C362.54 93.9236 361.841 94.1047 360.884 94.2859C359.693 94.4929 358.425 94.5446 356.951 94.467C355.864 94.3894 354.674 94.2341 353.38 94.0012C352.267 93.7942 351.077 93.5355 349.835 93.2509C348.722 92.9921 342.745 91.5431 342.745 91.5431H342.538C341.115 91.2326 339.407 90.8962 337.466 90.6116C335.034 90.2234 332.757 89.9647 330.48 89.8094C327.66 89.6283 324.865 89.5766 322.148 89.7059C319.25 89.8353 316.326 90.1717 313.48 90.6892L312.652 90.8445C309.029 91.5431 305.433 92.3452 302.017 93.2767C298.602 94.2082 295.341 95.2174 292.288 96.33C289.209 97.4427 286.285 98.6588 283.62 99.9267C280.929 101.195 278.419 102.566 276.064 104.041C274.848 104.765 273.735 105.438 272.7 106.033C271.665 106.654 270.708 107.198 269.854 107.689C268.974 108.181 268.172 108.621 267.448 109.009C266.697 109.397 266.025 109.759 265.429 110.044L257.693 113.848L254.51 103.523L226.358 108.88L240.511 193.777L280.644 186.117L280.127 183.219C279.014 177.035 278.471 171.162 278.522 165.702C278.574 160.19 279.247 155.171 280.515 150.824C281.886 146.062 283.982 142.078 286.699 139.05C289.83 135.531 293.659 133.332 298.11 132.478L299.119 132.297C300.594 132.038 302.121 131.805 303.596 131.624C305.433 131.391 307.322 131.236 309.159 131.132C311.022 131.029 312.911 131.003 314.748 131.003C316.663 131.003 318.526 131.107 320.596 131.288L344.893 132.995L340.287 142.906C335.629 152.971 331.36 163.244 327.608 173.464C322.873 186.325 318.966 199.081 315.99 211.398C314.179 218.902 312.704 226.276 311.565 233.469C327.841 227.88 349.809 218.022 372.683 201.022C373.537 197.477 374.494 193.906 375.581 190.206C378.194 181.408 381.17 173.076 383.499 166.789L384.611 163.916L385.724 161.096L388.13 155.145C390.666 148.805 393.047 142.828 395.22 136.825C397.678 130.02 399.412 124.353 400.68 118.945C402.155 112.813 402.957 107.146 403.19 101.66C403.423 95.6831 402.957 90.0423 401.715 84.4274L399.955 76.406L400.059 76.4319Z" fill="#BB1338"/>
<path d="M365.102 79.692L362.514 165.262L361.143 158.301L363.109 69.8853L365.102 79.692Z" fill="#BB1338"/>
<path d="M382.826 290.524C382.826 290.524 374.003 263.019 385.414 216.184C396.825 169.35 405.079 161.975 411.134 131.028C417.189 100.082 414.032 82.3569 414.032 82.3569L392.116 160.268L374.132 204.411L371.648 243.405L376.875 281.261L382.826 290.498V290.524Z" fill="#BB1338"/>
<path d="M386.241 307.602L384.766 312.053L309.96 326.155L306.545 322.791L386.241 307.602Z" fill="#BB1338"/>
<path d="M299.352 135.169C273.528 140.913 282.145 188.084 282.611 188.11C283.076 188.136 287.268 191.318 287.268 191.318L290.322 198.589L288.976 191.267C288.614 189.3 278.264 140.81 326.314 154.213L334.025 136.592C334.025 136.592 314.23 133.047 299.378 135.195L299.352 135.169Z" fill="url(#paint13_linear_66_197)"/>
<path d="M287.268 191.318L290.321 198.589L235.129 208.68L229.876 202.263L287.268 191.318Z" fill="#BB1338"/>
<path d="M310.452 77.5961C314.333 76.8457 318.034 76.4576 321.501 76.2765C324.968 76.1212 328.203 76.173 331.152 76.38C334.102 76.587 336.793 76.9234 339.148 77.2856C341.503 77.6479 343.547 78.0619 345.229 78.3724L349.084 79.3039C350.3 79.6144 351.516 79.899 352.681 80.1836C353.845 80.4424 354.958 80.7012 356.019 80.8823C357.08 81.0634 358.037 81.1928 358.943 81.2704C359.822 81.3222 360.599 81.2963 361.271 81.1669C361.866 81.0634 362.384 80.934 362.824 80.8047C363.264 80.6753 363.626 80.5459 363.936 80.4165C364.247 80.2872 364.48 80.1578 364.687 80.0543C364.894 79.9249 365.049 79.8214 365.178 79.7179L363.186 69.8853L409.632 61.0359L413.074 76.794C414.549 83.5992 415.04 90.2492 414.782 96.8215C414.523 103.42 413.488 109.94 411.961 116.461C410.409 122.981 408.339 129.502 405.984 136.049C403.629 142.621 400.964 149.245 398.273 155.973C397.885 156.93 397.497 157.913 397.109 158.871C396.721 159.828 396.332 160.811 395.944 161.769C395.556 162.752 395.168 163.709 394.78 164.693C394.392 165.676 394.004 166.659 393.641 167.642C390.769 175.379 387.975 183.349 385.517 191.655C383.058 200.012 380.937 208.707 379.462 217.892C377.987 227.104 377.159 236.833 377.288 247.183C377.418 257.585 378.504 268.634 380.885 280.485L386.293 307.576L306.623 322.765L302.922 302.298C300.154 286.876 299.662 271.04 300.749 255.386C301.836 239.835 304.501 224.491 308.02 209.897C311.539 195.407 315.912 181.667 320.466 169.247C325.02 156.878 329.755 145.804 334.025 136.592C332.731 136.54 331.463 136.463 330.195 136.359C328.927 136.256 327.685 136.152 326.469 136.023C325.253 135.893 324.063 135.79 322.898 135.66C321.734 135.531 320.621 135.402 319.534 135.298C317.723 135.169 315.938 135.065 314.126 135.065C312.341 135.065 310.53 135.065 308.744 135.169C306.959 135.272 305.174 135.428 303.414 135.635C301.654 135.842 299.895 136.126 298.135 136.463C295.134 137.032 292.572 138.558 290.476 140.913C288.38 143.268 286.75 146.45 285.612 150.306C284.499 154.187 283.878 158.741 283.826 163.865C283.775 168.988 284.266 174.68 285.379 180.787L287.294 191.318L229.902 202.264L212.488 97.9083L256.217 89.5764L258.934 98.3999C259.504 98.1153 260.125 97.8048 260.849 97.4166C261.548 97.0285 262.35 96.6145 263.23 96.1229C264.109 95.6312 265.067 95.0878 266.102 94.4668C267.137 93.8458 268.301 93.1731 269.543 92.4227C272.208 90.7667 275.081 89.2141 278.16 87.7393C281.239 86.2902 284.499 84.9188 287.941 83.6768C291.382 82.4348 295.005 81.2963 298.782 80.2872C302.56 79.278 306.467 78.3724 310.504 77.5961H310.452Z" fill="url(#paint14_linear_66_197)"/>
<path d="M309.806 318.082L306.83 301.599C304.269 287.471 303.57 271.998 304.709 255.67C305.718 241.49 308.124 226.405 311.876 210.854C315.033 197.813 319.173 184.28 324.193 170.644C328.152 159.854 332.68 148.96 337.622 138.274L340.132 132.84L334.155 132.555C332.913 132.504 331.671 132.426 330.455 132.322C329.213 132.219 327.996 132.115 326.806 132.012L319.897 131.287C317.905 131.132 316.016 131.054 314.127 131.029C312.238 131.029 310.349 131.029 308.486 131.158C306.598 131.261 304.735 131.417 302.872 131.65C301.008 131.883 299.171 132.167 297.334 132.504C293.505 133.228 290.167 135.169 287.424 138.222C284.94 141.017 282.999 144.691 281.705 149.167C280.463 153.411 279.817 158.353 279.765 163.787C279.713 169.272 280.256 175.198 281.395 181.46L282.585 188.084L233.137 197.502L217.043 101.091L253.372 94.1562L256.399 104.041L260.617 101.971C261.212 101.686 261.885 101.324 262.635 100.936C263.36 100.547 264.188 100.108 265.068 99.5901C265.947 99.0984 266.931 98.5292 268.017 97.9082C269.078 97.2872 270.243 96.5885 271.485 95.8381C274.046 94.2598 276.815 92.759 279.739 91.3617C282.663 89.9644 285.846 88.6448 289.183 87.4545C292.495 86.2643 296.04 85.1516 299.689 84.1425C303.363 83.1592 307.219 82.2795 311.126 81.5291C314.567 80.8822 318.086 80.4682 321.605 80.2871C324.607 80.1318 327.712 80.1836 330.791 80.3906C333.275 80.5717 335.785 80.8563 338.45 81.2703C340.624 81.6067 342.513 81.969 344.091 82.2795C344.091 82.2795 350.508 83.832 351.672 84.0907C352.914 84.3754 354.079 84.6341 355.217 84.8411C356.433 85.0481 357.546 85.2034 358.581 85.281C359.849 85.3586 360.936 85.3069 361.919 85.1258C362.644 84.9964 363.29 84.8411 363.808 84.6859C364.429 84.5047 364.946 84.3236 365.361 84.1425C365.904 83.9096 366.318 83.7026 366.68 83.4697C367.042 83.2627 367.353 83.004 367.638 82.797L369.475 81.2703L367.819 73.0678L406.425 65.7192L409.038 77.6737C410.384 83.8837 410.927 90.0938 410.668 96.692C410.435 102.669 409.53 108.853 407.951 115.555C406.58 121.351 404.717 127.432 402.103 134.703C399.801 141.094 397.265 147.434 394.574 154.161L392.09 160.32L390.925 163.269L389.761 166.271C387.355 172.817 384.25 181.434 381.533 190.594C378.764 199.961 376.746 208.706 375.374 217.323C373.77 227.414 373.02 237.247 373.149 247.312C373.278 258.413 374.52 269.85 376.823 281.339L381.455 304.471L309.754 318.133L309.806 318.082Z" fill="url(#paint15_linear_66_197)"/>
<path d="M310.453 300.926C307.969 287.083 307.27 271.946 308.383 255.929C309.366 241.93 311.747 227.052 315.473 211.708C318.604 198.796 322.718 185.393 327.66 171.886C331.593 161.174 336.069 150.383 340.986 139.8L345.799 129.399L320.285 127.613C318.138 127.432 316.171 127.354 314.153 127.329C312.212 127.329 310.22 127.329 308.279 127.458C306.339 127.561 304.372 127.743 302.431 127.975C300.853 128.157 299.275 128.415 297.722 128.674L296.661 128.881C292.004 129.761 287.967 132.09 284.681 135.764C281.809 138.972 279.635 143.138 278.186 148.132C276.867 152.686 276.168 157.939 276.09 163.735C276.039 169.454 276.608 175.638 277.772 182.107L278.316 185.134L236.165 193.155L221.286 104.015L250.836 98.374L254.174 109.216L262.273 105.231C262.92 104.92 263.618 104.558 264.395 104.144C265.145 103.73 265.999 103.29 266.905 102.773C267.81 102.255 268.819 101.686 269.906 101.039C270.993 100.418 272.157 99.7196 273.425 98.9433C275.883 97.4166 278.523 95.9676 281.343 94.648C284.163 93.3025 287.217 92.0346 290.451 90.8702C293.66 89.7058 297.101 88.619 300.672 87.6616C304.269 86.7042 308.021 85.8245 311.824 85.1L312.678 84.9447C315.68 84.4013 318.733 84.065 321.786 83.9356C324.633 83.8062 327.582 83.8321 330.532 84.0391C332.913 84.1943 335.319 84.479 337.855 84.8671C339.899 85.1776 341.659 85.514 343.159 85.7986L343.366 85.8504C343.366 85.8504 349.654 87.377 350.818 87.6358C352.112 87.9463 353.38 88.205 354.544 88.412C355.916 88.6708 357.184 88.826 358.296 88.9037C359.823 89.0072 361.169 88.9295 362.411 88.7225C363.42 88.5414 364.17 88.3603 364.791 88.1791C365.593 87.9463 366.214 87.7393 366.758 87.5064C367.43 87.2218 368.051 86.9112 368.595 86.5749C369.035 86.3161 369.5 85.9797 369.966 85.5916L373.485 82.6677L372.14 75.966L403.552 69.9888L405.389 78.4241C406.683 84.3237 407.175 90.2233 406.916 96.511C406.683 102.281 405.829 108.207 404.277 114.675C402.931 120.342 401.12 126.294 398.533 133.435C396.281 139.749 393.771 146.011 391.106 152.661L388.596 158.922L387.432 161.898L386.268 164.925C383.809 171.55 380.679 180.27 377.962 189.533C375.141 199.055 373.097 207.93 371.7 216.728C370.044 227.052 369.319 237.066 369.449 247.338C369.604 258.646 370.846 270.342 373.175 282.037L377.082 301.521L312.704 313.786L310.401 300.978L310.453 300.926Z" fill="#BB1338"/>
<path style="mix-blend-mode:screen" opacity="0.75" d="M403.63 69.9888L372.218 75.966L373.563 82.6677L370.044 85.5916C369.578 85.9797 369.113 86.3161 368.673 86.5749C368.129 86.9112 367.482 87.2476 366.836 87.5064C366.292 87.7393 365.671 87.9463 364.869 88.1791C364.248 88.3603 363.523 88.5414 362.488 88.7225C361.246 88.9554 359.901 89.0071 358.374 88.9036C357.236 88.826 355.968 88.6708 354.622 88.412C353.458 88.205 352.19 87.9463 350.896 87.6357C349.732 87.377 343.444 85.8504 343.444 85.8504L343.237 85.7986C341.736 85.514 339.951 85.1776 337.933 84.8671C335.371 84.479 332.991 84.1943 330.61 84.0391C327.66 83.8321 324.71 83.8062 321.864 83.9356C318.811 84.0908 315.758 84.4272 312.756 84.9447L311.902 85.1C308.098 85.8245 304.321 86.6784 300.75 87.6616C297.179 88.619 293.738 89.7058 290.529 90.8702C287.295 92.0346 284.241 93.3025 281.421 94.648C278.601 95.9935 275.961 97.4166 273.503 98.9433C272.235 99.7195 271.045 100.418 269.984 101.039C268.897 101.686 267.888 102.255 266.983 102.773C266.051 103.29 265.223 103.756 264.473 104.144C263.67 104.558 262.972 104.92 262.351 105.231L254.252 109.216L250.914 98.374L221.364 104.015L236.243 193.155L278.394 185.134L277.85 182.107C276.686 175.612 276.117 169.428 276.168 163.735C276.22 157.939 276.945 152.686 278.264 148.132C279.713 143.113 281.913 138.947 284.759 135.764C288.045 132.064 292.082 129.761 296.739 128.881L297.8 128.674C299.353 128.389 300.931 128.157 302.509 127.975C304.45 127.743 306.417 127.561 308.357 127.458C310.298 127.354 312.29 127.303 314.231 127.329C316.249 127.329 318.216 127.432 320.363 127.613L345.876 129.399L341.064 139.8C336.173 150.383 331.697 161.174 327.738 171.886C322.77 185.393 318.681 198.77 315.551 211.708C313.636 219.574 312.109 227.311 310.893 234.892C327.971 229.019 351.026 218.694 375.064 200.84C375.97 197.14 376.953 193.362 378.091 189.481C380.834 180.244 383.965 171.498 386.397 164.874L387.562 161.846L388.726 158.871L391.236 152.609C393.901 145.959 396.411 139.697 398.662 133.383C401.224 126.242 403.061 120.265 404.407 114.624C405.933 108.181 406.813 102.229 407.046 96.4592C407.305 90.1974 406.787 84.272 405.519 78.3724L403.682 69.937L403.63 69.9888Z" fill="#BB1338"/>
<path d="M222.321 109.863L251.871 104.222L255.209 115.064L263.308 111.079C263.955 110.768 264.653 110.406 265.43 109.992C266.18 109.578 267.034 109.138 267.94 108.621C268.845 108.103 269.854 107.534 270.941 106.887C272.028 106.266 273.192 105.567 274.46 104.791C276.918 103.265 279.558 101.816 282.378 100.496C285.198 99.1503 288.252 97.8825 291.486 96.7181C294.695 95.5537 298.136 94.4669 301.707 93.5095C305.304 92.5521 309.056 91.6724 312.859 90.9479L313.713 90.7926C316.715 90.2492 319.768 89.9129 322.821 89.7835C325.668 89.6541 328.617 89.68 331.567 89.887C333.948 90.0422 336.354 90.3269 338.89 90.715C340.934 91.0255 342.694 91.3619 344.194 91.6465L344.401 91.6982C344.401 91.6982 350.689 93.2249 351.853 93.4836C353.147 93.7942 354.415 94.0529 355.579 94.2599C356.951 94.5187 358.219 94.6739 359.331 94.7515C360.858 94.855 362.204 94.7774 363.446 94.5704C364.455 94.3893 365.205 94.2082 365.826 94.027C366.628 93.7942 367.249 93.5872 367.793 93.3543C368.465 93.0696 369.086 92.7591 369.63 92.4228C370.07 92.164 370.535 91.8276 371.001 91.4395L374.52 88.5156L373.356 82.823L369.966 85.6434C369.5 86.0315 369.035 86.3679 368.595 86.6267C368.051 86.9631 367.404 87.2994 366.758 87.5582C366.214 87.7911 365.593 87.9981 364.791 88.2309C364.17 88.4121 363.446 88.5932 362.411 88.7743C361.169 89.0072 359.823 89.059 358.296 88.9555C357.158 88.8778 355.89 88.7226 354.544 88.4638C353.38 88.2568 352.112 87.9981 350.818 87.6876C349.654 87.4029 343.366 85.9022 343.366 85.9022L343.159 85.8504C341.659 85.5658 339.873 85.2294 337.855 84.9189C335.293 84.5308 332.913 84.2461 330.532 84.0909C327.582 83.8839 324.633 83.858 321.786 83.9874C318.733 84.1426 315.68 84.479 312.678 84.9965L311.824 85.1518C308.021 85.8763 304.243 86.7302 300.672 87.7134C297.101 88.6708 293.66 89.7576 290.451 90.922C287.217 92.0864 284.163 93.3543 281.343 94.6998C278.523 96.0453 275.883 97.4684 273.425 98.9951C272.157 99.7714 270.967 100.47 269.906 101.091C268.819 101.738 267.81 102.307 266.905 102.825C265.973 103.342 265.145 103.808 264.395 104.196C263.593 104.61 262.894 104.972 262.273 105.283L254.174 109.268L250.836 98.4258L221.286 104.067L236.165 193.207H236.216L222.321 109.863V109.863Z" fill="#BB1338"/>
<path d="M404.665 75.8107L406.399 83.7286C406.166 81.9691 405.856 80.1837 405.467 78.4241L403.63 69.9888L372.218 75.966L373.382 81.7362L404.665 75.7849V75.8107Z" fill="#BB1338"/>
<path d="M374.287 287.808L377.03 301.496H377.159L373.303 282.219C373.614 284.082 373.924 285.919 374.287 287.782V287.808Z" fill="#BB1338"/>
<path d="M342.202 137.187L340.986 139.826C336.095 150.409 331.619 161.2 327.66 171.912C322.692 185.419 318.604 198.796 315.473 211.734C311.747 227.078 309.366 241.956 308.383 255.955C307.244 271.972 307.943 287.109 310.453 300.952L311.359 305.92C308.978 292.31 308.331 277.457 309.444 261.751C310.427 247.753 312.808 232.874 316.534 217.53C319.665 204.618 323.779 191.215 328.721 177.708C332.654 166.996 337.13 156.206 342.047 145.623L346.86 135.221L345.825 129.425L342.228 137.187H342.202Z" fill="#BB1338"/>
<path d="M612.289 68.2552C611.927 95.0103 611.746 104.895 611.59 126.552C611.073 124.767 610.814 123.887 610.297 122.102C610.219 99.5644 610.297 89.2401 610.374 59.9492C611.15 63.3648 611.539 65.0208 612.315 68.2552H612.289Z" fill="#BB1338"/>
<path d="M634.723 224.102C633.429 226.121 632.782 227.156 631.488 229.226C606.829 239.213 594.771 244.052 567.68 254.325C568.87 252.358 569.465 251.401 570.63 249.434C597.695 239.058 609.805 234.168 634.723 224.102V224.102Z" fill="#BB1338"/>
<path d="M557.615 101.35C536.216 102.954 545.169 140.577 545.557 140.629C545.945 140.655 549.593 143.19 549.593 143.19C549.231 141.664 533.318 101.893 580.877 117.574C583.231 112.813 584.421 110.484 586.802 105.801C586.802 105.801 569.983 101.324 557.615 101.35V101.35Z" fill="url(#paint16_linear_66_197)"/>
<path d="M484.956 57.8276C483.74 59.406 483.145 60.2082 481.929 61.7866C487.621 93.872 493.34 125.957 499.032 158.069C499.757 155.248 500.119 153.825 500.818 151.031C494.504 113.796 491.347 95.2175 484.956 57.8535V57.8276Z" fill="#FFEA8C"/>
<path d="M567.653 254.325C567.653 254.325 554.561 205.835 562.66 165.34C567.214 142.544 573.32 126.449 577.771 116.591C581.367 112.218 583.179 110.07 586.801 105.801C586.801 105.801 567.343 149.064 565.195 169.971C562.892 192.25 570.629 249.435 570.629 249.435C569.465 251.375 568.87 252.359 567.679 254.325H567.653Z" fill="#BB1338"/>
<path d="M549.593 143.19C548.247 145.856 547.575 147.201 546.229 149.918C527.78 153.023 518.491 154.627 499.058 158.043C499.809 155.222 500.197 153.825 500.921 151.057C520.923 147.719 530.523 146.166 549.619 143.165L549.593 143.19Z" fill="#BB1338"/>
<path d="M564.756 56.9479C568.042 56.9997 571.199 57.3102 574.175 57.776C577.15 58.2417 579.945 58.8886 582.507 59.5872C585.068 60.2859 587.397 61.0362 589.467 61.7608C591.537 62.4853 593.323 63.158 594.797 63.7273C596.143 64.2965 596.842 64.5812 598.187 65.1504C599.274 65.6162 600.335 66.0561 601.344 66.4701C602.379 66.8841 603.362 67.2722 604.268 67.6086C605.173 67.945 606.053 68.2037 606.829 68.4107C607.606 68.6177 608.304 68.7212 608.874 68.7212C609.391 68.7212 609.857 68.7212 610.245 68.7212C610.633 68.7212 610.944 68.6695 611.202 68.6177C611.461 68.566 611.668 68.5142 611.849 68.4625C612.03 68.4107 612.16 68.3331 612.263 68.2813C611.487 65.0469 611.099 63.3909 610.323 59.9754C626.753 60.4929 635.137 60.8034 652.37 61.6314C653.56 66.9617 654.155 69.4457 655.346 74.2068C656.614 79.3042 656.95 83.8066 656.639 87.9725C656.303 92.1643 655.32 95.9938 653.871 99.7199C652.422 103.472 650.559 107.068 648.463 110.717C646.367 114.365 644.064 118.04 641.761 121.817C641.425 122.361 641.088 122.904 640.778 123.448C640.442 123.991 640.105 124.534 639.795 125.104C639.458 125.647 639.148 126.216 638.811 126.786C638.501 127.355 638.164 127.924 637.854 128.493C635.473 132.944 633.171 137.653 631.23 142.699C629.289 147.77 627.685 153.204 626.65 159.13C625.615 165.081 625.175 171.524 625.537 178.64C625.925 185.781 627.116 193.622 629.393 202.497C631.463 210.622 632.524 214.865 634.671 224.129C609.753 234.22 597.644 239.085 570.578 249.461C569 242.19 568.198 238.645 566.645 231.684C563.695 218.565 562.738 205.317 563.1 192.638C563.462 180.063 565.118 168.057 567.525 157.137C569.931 146.296 573.062 136.489 576.452 127.872C579.816 119.308 583.438 111.907 586.776 105.801C585.689 105.645 584.603 105.464 583.542 105.283C582.481 105.102 581.42 104.895 580.385 104.714C579.35 104.507 578.341 104.3 577.357 104.119C576.374 103.912 575.417 103.731 574.511 103.524C572.984 103.239 571.484 103.006 569.957 102.799C568.456 102.592 566.93 102.437 565.455 102.333C563.954 102.23 562.479 102.152 561.004 102.126C559.529 102.126 558.054 102.126 556.605 102.204C554.121 102.333 552.025 103.213 550.369 104.817C548.713 106.422 547.471 108.725 546.669 111.597C545.867 114.495 545.531 117.962 545.686 121.921C545.815 125.88 546.462 130.305 547.601 135.04C548.403 138.326 548.791 139.956 549.567 143.19C530.471 146.192 520.872 147.745 500.87 151.082C494.505 113.977 491.296 95.5281 484.853 58.1641C498.67 58.1123 505.657 58.0606 519.862 58.0606C520.897 61.295 521.415 62.8993 522.45 66.0561C522.89 65.9008 523.407 65.7456 523.977 65.5386C524.546 65.3316 525.167 65.0987 525.865 64.814C526.564 64.5294 527.34 64.2189 528.168 63.8825C528.996 63.5203 529.928 63.1321 530.911 62.6923C533.033 61.709 535.362 60.8551 537.872 60.1047C540.356 59.3543 543.047 58.7592 545.867 58.2676C548.713 57.776 551.689 57.4137 554.846 57.2067C557.977 56.9738 561.289 56.8962 564.704 56.9479H564.756Z" fill="url(#paint17_linear_66_197)"/>
<path d="M573.192 244.673C571.924 238.877 571.277 236.031 570.009 230.442C567.292 218.462 566.153 205.576 566.49 192.431C566.8 181.02 568.249 169.247 570.837 157.68C572.984 147.977 575.934 138.326 579.66 128.933C582.61 121.507 586.052 114.262 589.907 107.249C590.683 105.826 591.097 105.128 591.874 103.705C589.855 103.394 588.82 103.265 586.802 102.954C585.741 102.799 584.706 102.618 583.671 102.437C582.61 102.255 581.575 102.048 580.566 101.841C578.237 101.35 577.047 101.117 574.718 100.599C573.036 100.263 571.432 100.004 569.854 99.7973C568.275 99.5903 566.697 99.4092 565.118 99.2798C563.54 99.1504 561.987 99.0728 560.435 99.0469C558.882 99.0211 557.356 99.0469 555.829 99.0987C552.646 99.2281 549.93 100.341 547.756 102.437C545.79 104.326 544.315 107.017 543.409 110.38C542.529 113.589 542.167 117.367 542.322 121.61C542.477 125.88 543.15 130.537 544.315 135.454C544.806 137.524 545.065 138.559 545.557 140.629C529.074 143.087 520.794 144.355 503.69 147.02C497.687 113.071 494.686 96.1748 488.605 61.7088C500.171 61.6571 505.993 61.6312 517.792 61.6053C518.957 65.202 519.526 66.9874 520.69 70.5064C522.062 70.0666 522.735 69.8595 524.08 69.4197C524.572 69.2644 525.115 69.0833 525.71 68.8504C526.305 68.6434 526.952 68.3847 527.677 68.1C528.401 67.8154 529.178 67.5049 530.031 67.1426C530.885 66.7804 531.817 66.3923 532.826 65.9524C534.87 65.0467 537.121 64.1928 539.502 63.4942C541.882 62.7956 544.496 62.2004 547.213 61.7347C549.955 61.2689 552.879 60.9326 555.933 60.6997C558.986 60.4927 562.22 60.3892 565.532 60.4409C568.43 60.4668 571.458 60.7255 574.459 61.2172C577.047 61.6053 579.712 62.1746 582.377 62.8991C584.525 63.4683 586.698 64.1411 589.027 64.9432C590.916 65.5901 592.572 66.2111 593.969 66.7286C593.969 66.7286 599.584 69.0315 600.645 69.4455C601.732 69.8854 602.767 70.2736 603.75 70.6099C604.811 70.9722 605.794 71.2827 606.7 71.4897C607.813 71.7484 608.77 71.9037 609.624 71.9037C610.271 71.9037 610.814 71.9037 611.28 71.8778C611.823 71.852 612.263 71.8002 612.626 71.7226C613.091 71.6449 613.479 71.5414 613.764 71.4379C614.075 71.3344 614.359 71.2051 614.592 71.0757C615.239 70.7134 615.549 70.5582 616.196 70.1959C615.575 67.5308 615.239 66.1852 614.618 63.4166C628.306 63.8306 635.266 64.0893 649.498 64.7104C650.404 68.6434 650.869 70.5323 651.749 74.129C652.913 78.8124 653.327 83.0819 653.017 87.3254C652.732 91.155 651.878 94.881 650.404 98.7882C649.136 102.152 647.454 105.593 645.151 109.682C643.133 113.278 640.933 116.823 638.656 120.653C637.828 122.05 637.388 122.749 636.56 124.172C636.172 124.845 635.965 125.181 635.577 125.88C635.189 126.578 635.008 126.915 634.62 127.613C632.627 131.417 630.091 136.514 627.97 142.104C625.796 147.848 624.295 153.385 623.338 158.974C622.225 165.547 621.889 172.119 622.251 179.105C622.665 186.79 624.011 194.993 626.236 203.635C628.021 210.621 628.927 214.244 630.764 222.007C608.278 230.985 597.256 235.41 573.114 244.648L573.192 244.673Z" fill="url(#paint18_linear_66_197)"/>
<path d="M573.062 229.355C570.396 217.66 569.258 205.11 569.594 192.302C569.905 181.098 571.328 169.583 573.864 158.25C575.986 148.702 578.909 139.206 582.61 129.994C585.534 122.671 588.949 115.53 592.805 108.673C594.331 105.956 595.082 104.61 596.608 101.919C587.914 100.444 583.593 99.6423 574.951 98.0121C573.139 97.6499 571.457 97.3652 569.775 97.1065C568.119 96.8736 566.463 96.6666 564.833 96.5372C563.203 96.382 561.547 96.3044 559.943 96.2526C558.623 96.2267 557.304 96.2009 556.01 96.2526C555.648 96.2526 555.466 96.2526 555.13 96.2526C551.275 96.382 547.988 97.7275 545.375 100.237C543.124 102.411 541.442 105.464 540.407 109.268C539.475 112.735 539.061 116.798 539.217 121.352C539.372 125.828 540.071 130.719 541.261 135.868C541.494 136.825 541.597 137.317 541.83 138.274C527.78 140.267 520.69 141.276 506.226 143.423C500.585 112.295 497.764 96.796 492.046 64.9952C501.49 64.9434 506.251 64.9176 515.825 64.8917C517.093 68.8247 517.714 70.7654 518.982 74.6208C521.596 73.7669 522.889 73.3529 525.503 72.5249C526.02 72.3697 526.589 72.1627 527.21 71.9298C527.806 71.6969 528.504 71.464 529.229 71.1535C529.953 70.8689 530.755 70.5325 531.635 70.1703C532.489 69.808 533.446 69.4199 534.482 68.9541C536.448 68.0743 538.596 67.2722 540.899 66.5995C543.201 65.9267 545.711 65.3574 548.351 64.9176C550.99 64.4777 553.836 64.1413 556.838 63.9084C559.839 63.7014 562.996 63.5979 566.205 63.6497C566.489 63.6497 566.645 63.6497 566.929 63.6497C569.465 63.7014 572.078 63.9343 574.692 64.3483C577.15 64.7106 579.66 65.2539 582.222 65.9008C584.292 66.4442 586.362 67.0652 588.587 67.8156C590.346 68.4107 591.899 68.98 593.219 69.4457C593.296 69.4716 593.322 69.4975 593.4 69.5234C593.4 69.5234 598.911 71.7486 599.92 72.1368C601.059 72.5767 602.146 72.9907 603.181 73.327C604.371 73.741 605.483 74.0515 606.467 74.2844C607.812 74.5949 609.002 74.7761 610.063 74.8019C610.943 74.8019 611.59 74.8019 612.133 74.7761C612.832 74.7243 613.375 74.6726 613.841 74.5691C614.41 74.4656 614.98 74.3103 615.445 74.1551C615.808 74.0257 616.248 73.8445 616.636 73.6375C617.878 72.9907 618.473 72.6543 619.715 71.9815C619.197 69.8339 618.939 68.7471 618.421 66.5477C629.573 66.8582 635.24 67.0652 646.755 67.5051C647.402 70.222 647.712 71.5416 648.359 74.1033C649.472 78.5797 649.886 82.668 649.601 86.7563C649.342 90.5083 648.514 94.1308 647.143 97.9345C645.927 101.272 644.296 104.688 642.045 108.75C640.079 112.321 637.905 115.892 635.68 119.696C634.826 121.145 634.412 121.843 633.584 123.292C633.196 123.991 632.989 124.327 632.601 125.026C632.213 125.725 632.032 126.087 631.643 126.786C629.625 130.667 627.089 135.868 624.968 141.56C622.768 147.434 621.267 153.101 620.31 158.845C619.197 165.599 618.861 172.352 619.249 179.519C619.689 187.411 621.086 195.821 623.363 204.696C624.89 210.622 625.64 213.675 627.193 220.118C606.958 228.113 596.97 232.072 575.442 240.301C574.459 235.85 573.967 233.651 572.984 229.33L573.062 229.355Z" fill="#BB1338"/>
<path d="M515.826 77.2083C517.533 78.1657 518.387 78.6573 520.095 79.5888C518.413 73.7668 517.559 70.817 515.877 64.8398C514.273 64.8398 513.471 64.8398 511.867 64.8398C513.445 69.8338 514.247 72.3178 515.851 77.2083H515.826Z" fill="#BB1338"/>
<path d="M545.375 100.212C547.755 97.9087 550.705 96.6667 554.121 96.3562C553.37 96.3562 552.62 96.3562 551.896 96.3562C551.533 96.3562 551.352 96.3562 551.016 96.3821C547.16 96.5114 543.874 97.857 541.287 100.393C539.035 102.592 537.354 105.671 536.319 109.501C535.387 112.994 534.973 117.108 535.128 121.714C535.284 126.242 535.956 131.184 537.172 136.385C537.405 137.343 537.509 137.834 537.742 138.818C539.398 138.585 540.226 138.481 541.882 138.248C541.649 137.291 541.545 136.799 541.313 135.842C540.096 130.719 539.424 125.828 539.268 121.326C539.113 116.772 539.501 112.709 540.459 109.242C541.494 105.438 543.15 102.411 545.427 100.212H545.375Z" fill="#BB1338"/>
<path d="M648.489 74.1033C647.842 71.5417 647.531 70.222 646.884 67.5051C645.073 67.4275 644.167 67.4016 642.356 67.324C643.003 70.0409 643.339 71.3605 643.986 73.9481C645.125 78.4504 645.539 82.5904 645.28 86.7046C645.047 90.4824 644.245 94.1567 642.874 98.0121C641.683 101.376 640.079 104.843 637.854 108.957C635.913 112.58 633.765 116.203 631.566 120.058C630.738 121.507 630.324 122.257 629.47 123.706C629.082 124.405 628.901 124.741 628.513 125.466C628.125 126.19 627.943 126.527 627.555 127.251C625.563 131.184 623.053 136.463 620.957 142.233C618.784 148.184 617.309 153.929 616.377 159.751C615.29 166.608 614.954 173.439 615.368 180.684C615.834 188.654 617.231 197.166 619.534 206.119C621.061 212.071 621.837 215.15 623.389 221.619C624.942 220.998 625.718 220.713 627.271 220.092C625.718 213.649 624.968 210.596 623.441 204.67C621.164 195.795 619.767 187.386 619.327 179.494C618.939 172.326 619.275 165.573 620.388 158.819C621.345 153.075 622.846 147.408 625.045 141.534C627.167 135.842 629.703 130.641 631.721 126.76C632.109 126.061 632.291 125.699 632.679 125C633.067 124.302 633.274 123.965 633.662 123.266C634.49 121.817 634.93 121.093 635.758 119.67C638.009 115.866 640.157 112.295 642.123 108.725C644.374 104.662 646.005 101.247 647.221 97.9086C648.618 94.105 649.446 90.4824 649.679 86.7305C649.963 82.6681 649.549 78.5539 648.437 74.0774L648.489 74.1033Z" fill="#BB1338"/>
<path style="mix-blend-mode:screen" opacity="0.75" d="M646.858 67.505C635.343 67.0651 629.703 66.8581 618.524 66.5476C619.042 68.7729 619.301 69.8597 619.818 71.9814C618.576 72.6283 617.955 72.9647 616.739 73.6375C616.351 73.8445 615.911 74.0256 615.549 74.155C615.057 74.3102 614.514 74.4655 613.944 74.569C613.479 74.6466 612.935 74.7242 612.237 74.776C611.693 74.8019 611.046 74.8277 610.167 74.8019C609.08 74.8019 607.915 74.6207 606.57 74.2843C605.587 74.0515 604.474 73.7151 603.284 73.327C602.249 72.9647 601.162 72.5766 600.023 72.1367C598.988 71.7486 593.503 69.5233 593.503 69.5233C593.425 69.4974 593.399 69.4715 593.322 69.4457C592.002 68.9799 590.45 68.4106 588.69 67.8155C586.465 67.0651 584.395 66.4441 582.325 65.9007C579.763 65.228 577.253 64.7105 574.795 64.3482C572.182 63.9601 569.568 63.7272 567.032 63.6496C566.748 63.6496 566.593 63.6496 566.308 63.6496C563.099 63.6237 559.943 63.7013 556.941 63.9083C553.965 64.1153 551.119 64.4517 548.454 64.9175C545.789 65.3832 543.279 65.9525 541.002 66.5994C538.699 67.2721 536.551 68.0743 534.585 68.954C533.576 69.3939 532.618 69.8079 531.738 70.1702C530.859 70.5324 530.057 70.8688 529.332 71.1534C528.582 71.4381 527.909 71.6968 527.314 71.9297C526.667 72.1626 526.098 72.3437 525.606 72.5248C522.993 73.3528 521.673 73.7927 519.085 74.6207C517.817 70.7653 517.196 68.8246 515.929 64.8916C506.329 64.9175 501.594 64.9433 492.149 64.9951C497.868 96.7959 500.688 112.295 506.329 143.423C520.819 141.276 527.883 140.266 541.933 138.274C541.7 137.317 541.597 136.825 541.364 135.868C540.148 130.744 539.475 125.854 539.32 121.352C539.165 116.798 539.553 112.735 540.51 109.268C541.545 105.464 543.201 102.437 545.478 100.237C548.092 97.7274 551.352 96.3819 555.233 96.2525C555.596 96.2525 555.777 96.2525 556.113 96.2525C557.407 96.2266 558.726 96.2266 560.046 96.2525C561.65 96.3043 563.306 96.3819 564.937 96.5372C566.567 96.6924 568.223 96.8735 569.879 97.1064C571.561 97.3393 573.243 97.6498 575.054 98.012C583.696 99.6681 588.017 100.444 596.711 101.919C595.185 104.61 594.409 105.956 592.908 108.673C589.052 115.556 585.637 122.697 582.713 129.994C579.013 139.206 576.089 148.702 573.967 158.25C572.673 164.072 571.664 169.92 570.965 175.767C584.964 170.101 603.258 160.812 622.846 148.676C623.518 146.321 624.269 143.967 625.174 141.586C627.296 135.894 629.832 130.693 631.85 126.811C632.238 126.113 632.419 125.75 632.808 125.052C633.196 124.353 633.403 124.017 633.791 123.318C634.619 121.869 635.059 121.145 635.887 119.721C638.138 115.918 640.286 112.347 642.252 108.776C644.503 104.714 646.133 101.298 647.35 97.9603C648.747 94.1566 649.575 90.5341 649.808 86.7821C650.092 82.7197 649.678 78.6055 648.566 74.1291C647.919 71.5674 647.608 70.2478 646.961 67.5309L646.858 67.505Z" fill="#BB1338"/>
<path d="M493.056 70.1184C502.552 70.0408 507.313 69.989 516.939 69.9373C518.207 73.8186 518.828 75.7592 520.096 79.5888C522.709 78.7349 524.029 78.3209 526.642 77.467C527.159 77.3118 527.729 77.1047 528.35 76.8719C528.971 76.639 529.644 76.4061 530.394 76.0956C531.118 75.811 531.921 75.4746 532.8 75.1124C533.68 74.7501 534.612 74.362 535.647 73.8962C537.613 73.0164 539.761 72.2143 542.064 71.5416C544.367 70.8688 546.877 70.2995 549.542 69.8597C552.181 69.4198 555.027 69.0575 558.029 68.8505C561.03 68.6176 564.161 68.54 567.396 68.5659C567.68 68.5659 567.836 68.5659 568.12 68.5659C570.656 68.6176 573.243 68.8505 575.857 69.2128C578.289 69.575 580.825 70.0667 583.361 70.7135C585.405 71.231 587.501 71.8262 589.7 72.5507C591.46 73.12 593.012 73.6633 594.332 74.1291C594.41 74.1291 594.435 74.155 594.513 74.1808C594.513 74.1808 599.999 76.3285 601.034 76.7166C602.172 77.1565 603.259 77.5446 604.294 77.881C605.484 78.2691 606.597 78.5796 607.58 78.8125C608.926 79.123 610.09 79.2783 611.177 79.2783C612.057 79.2783 612.703 79.2783 613.247 79.2265C613.945 79.1748 614.489 79.0972 614.955 79.0195C615.524 78.916 616.067 78.7608 616.559 78.6055C616.921 78.4761 617.361 78.295 617.749 78.088C618.965 77.4411 619.586 77.1306 620.828 76.4837C620.388 74.7242 620.181 73.8445 619.742 72.0073C618.551 72.6542 617.956 72.9647 616.766 73.5857C616.378 73.7927 615.938 73.9738 615.576 74.1032C615.084 74.2585 614.541 74.4137 613.971 74.5172C613.506 74.5948 612.962 74.6725 612.264 74.7242C611.72 74.7501 611.073 74.776 610.194 74.7501C609.107 74.7501 607.942 74.569 606.597 74.2326C605.614 73.9997 604.501 73.6633 603.311 73.2752C602.276 72.9129 601.189 72.5248 600.05 72.0849C599.015 71.6968 593.53 69.4715 593.53 69.4715C593.452 69.4456 593.426 69.4198 593.349 69.3939C592.029 68.9281 590.476 68.3589 588.717 67.7638C586.492 67.0134 584.422 66.3924 582.352 65.849C579.79 65.1762 577.28 64.6587 574.822 64.2965C572.208 63.9083 569.595 63.6754 567.059 63.5978C566.775 63.5978 566.619 63.5978 566.335 63.5978C563.126 63.5719 559.969 63.6496 556.968 63.8566C553.992 64.0636 551.146 64.4 548.481 64.8657C545.816 65.3315 543.306 65.9007 541.029 66.5476C538.726 67.2204 536.578 68.0225 534.612 68.9023C533.602 69.3421 532.645 69.7562 531.765 70.1184C530.886 70.4807 530.083 70.817 529.359 71.1017C528.609 71.3863 527.936 71.6451 527.341 71.8779C526.694 72.1108 526.124 72.2919 525.633 72.4731C523.019 73.3011 521.7 73.741 519.112 74.569C517.844 70.7135 517.223 68.7729 515.955 64.8398C506.356 64.8657 501.621 64.8916 492.176 64.9433C497.894 96.7441 500.715 112.243 506.356 143.372C506.356 143.372 506.382 143.372 506.407 143.372C501.129 114.288 498.49 99.7716 493.159 70.1443L493.056 70.1184Z" fill="#BB1338"/>
<path d="M647.764 72.0332C648.36 74.4913 648.67 75.6816 649.265 78.0104C649.058 76.7425 648.799 75.4229 648.489 74.1032C647.842 71.5416 647.532 70.2219 646.885 67.505C635.37 67.0651 629.729 66.8581 618.551 66.5476C618.991 68.4624 619.224 69.3939 619.664 71.2569C630.738 71.5157 636.353 71.6709 647.764 72.0591V72.0332Z" fill="#BB1338"/>
<path d="M624.477 209.199C625.538 213.468 626.081 215.642 627.168 220.17C627.22 220.17 627.22 220.17 627.272 220.144C625.745 213.779 624.995 210.751 623.494 204.903C623.804 206.326 624.115 207.75 624.477 209.199V209.199Z" fill="#BB1338"/>
<path d="M115.094 153.541C114.965 182.262 115.042 193.854 115.094 217.556C114.602 215.616 114.344 214.658 113.852 212.718C113.567 188.058 113.36 175.845 113.334 145.131C114.033 148.547 114.369 150.229 115.094 153.541V153.541Z" fill="#BB1338"/>
<path d="M137.373 322.739C138.434 323.8 139.495 324.447 140.969 325.896C115.715 328.639 102.855 329.984 77.523 332.442C76.4621 331.33 75.4271 330.528 74.5215 329.441C99.957 326.931 111.782 325.663 137.399 322.739H137.373Z" fill="#BB1338"/>
<path d="M140.969 325.896C140.969 325.896 134.449 298.08 132.146 276.164C129.843 254.221 140.323 226.224 148.215 211.708C156.107 197.192 161.67 176.466 160.557 165.676C159.444 154.86 156.495 142.854 156.495 142.854L152.044 138.455C152.044 138.455 158.151 160.553 153.105 178.407C148.059 196.261 133.077 227.233 127.851 246.95C122.624 266.667 133.673 321.653 133.673 321.653L140.969 325.896Z" fill="#BB1338"/>
<path d="M66.7837 197.373C47.7912 202.756 54.5964 234.323 54.9587 234.323C55.3209 234.323 58.5295 236.238 58.5295 236.238C58.2448 234.944 44.7897 198.745 87.1994 209.897C89.347 204.929 90.4079 202.419 92.5556 197.322C92.5556 197.322 77.729 195.096 66.7837 197.348V197.373Z" fill="url(#paint19_linear_66_197)"/>
<path d="M58.5299 236.238C57.2361 238.618 56.5633 239.809 55.2437 242.163C38.3212 245.631 36.0442 246.433 17.1034 250.987C15.0851 249.357 14.3348 248.736 12.8857 247.209C32.3181 242.163 41.0899 240.041 58.504 236.264L58.5299 236.238Z" fill="#BB1338"/>
<path d="M73.9 152.687C76.7463 151.91 79.4373 151.444 81.999 151.186C84.5348 150.927 86.9412 150.901 89.1406 151.005C91.34 151.108 93.3583 151.341 95.1178 151.6C96.9032 151.858 98.4557 152.169 99.7236 152.428C100.914 152.712 101.483 152.868 102.673 153.178C103.605 153.411 104.536 153.67 105.442 153.877C106.348 154.11 107.202 154.291 108.03 154.446C108.832 154.601 109.608 154.731 110.281 154.757C110.979 154.808 111.575 154.782 112.092 154.705C112.558 154.601 112.946 154.524 113.308 154.42C113.645 154.317 113.929 154.213 114.162 154.11C114.395 154.006 114.576 153.903 114.731 153.799C114.887 153.696 115.016 153.592 115.119 153.515C114.421 150.202 114.059 148.521 113.36 145.105C127.85 142.103 135.38 140.758 152.044 138.403C153.337 144.329 154.01 147.201 155.33 152.764C156.753 158.741 157.296 164.279 157.141 169.505C156.986 174.732 156.158 179.674 154.89 184.41C153.622 189.171 151.888 193.777 149.974 198.305C148.059 202.859 145.911 207.387 143.789 211.941C143.479 212.588 143.168 213.261 142.858 213.908C142.547 214.554 142.237 215.227 141.952 215.874C141.642 216.521 141.357 217.194 141.047 217.867C140.736 218.539 140.451 219.186 140.167 219.859C137.967 225.086 135.846 230.468 134.06 236.135C132.275 241.827 130.774 247.778 129.843 254.196C128.885 260.638 128.497 267.521 128.859 275.077C129.222 282.684 130.36 290.99 132.534 300.383C134.5 308.999 135.483 313.45 137.398 322.688C111.807 325.611 99.9824 326.879 74.521 329.389C73.3049 322.584 72.7097 319.324 71.4936 312.958C69.2166 301.004 68.7508 289.722 69.5012 278.932C70.2257 268.22 72.0887 257.922 74.5469 248.063C76.9792 238.282 80.0066 228.941 83.1634 220.325C86.2943 211.76 89.5805 203.92 92.582 197.27C91.6246 197.244 90.6672 197.192 89.7098 197.14C88.7525 197.089 87.8209 197.037 86.9153 196.959C86.0097 196.907 85.104 196.83 84.2501 196.778C83.3963 196.726 82.5424 196.649 81.7402 196.597C80.3947 196.545 79.0492 196.545 77.7296 196.597C76.4099 196.649 75.0644 196.726 73.7448 196.882C72.4251 197.011 71.1055 197.218 69.8117 197.451C68.5179 197.684 67.1983 197.968 65.9304 198.279C63.731 198.848 61.8421 200.064 60.3154 201.85C58.7888 203.635 57.6244 205.938 56.8223 208.681C56.046 211.424 55.632 214.58 55.6579 218.022C55.6579 221.489 56.1236 225.267 57.0034 229.252C57.6244 232.02 57.9349 233.392 58.5559 236.135C41.1159 239.938 32.3701 242.034 12.9377 247.08C8.12486 222.912 5.79608 211.863 0 177.346C14.2832 172.429 20.9849 170.152 34.1296 165.909C34.9835 168.729 35.4234 170.101 36.2772 172.792C36.6912 172.533 37.157 172.197 37.7004 171.834C38.2179 171.472 38.813 171.058 39.4599 170.592C40.1068 170.126 40.8054 169.609 41.5817 169.04C42.3579 168.47 43.186 167.824 44.1175 167.125C46.0581 165.598 48.1799 164.098 50.4052 162.7C52.6563 161.303 55.0369 159.983 57.5468 158.741C60.0567 157.499 62.6701 156.361 65.4129 155.326C68.1557 154.291 71.002 153.359 73.9518 152.557L73.9 152.687Z" fill="url(#paint20_linear_66_197)"/>
<path d="M77.0561 325.87C76.0728 320.462 75.5812 317.849 74.5979 312.726C72.502 301.755 71.8551 290.602 72.5797 279.295C73.2265 269.462 74.8826 259.267 77.496 248.736C79.6695 239.912 82.5417 230.727 86.009 221.282C88.7518 213.804 91.8827 206.171 95.35 198.512C96.0486 196.959 96.4109 196.157 97.1095 194.605C95.2982 194.527 94.3926 194.501 92.6072 194.449C91.6757 194.424 90.7442 194.372 89.8385 194.346C88.907 194.294 88.0014 194.242 87.0957 194.191C85.0257 194.035 83.9907 193.958 81.9465 193.828C80.4458 193.777 79.0485 193.777 77.6512 193.828C76.254 193.88 74.8567 193.984 73.4853 194.113C72.088 194.268 70.7166 194.475 69.3452 194.708C67.9738 194.967 66.6283 195.252 65.2569 195.614C62.4365 196.338 60.0042 197.917 58.0118 200.271C56.2006 202.393 54.8033 205.11 53.8977 208.293C53.0179 211.32 52.578 214.71 52.6039 218.384C52.6039 222.084 53.0696 225.991 54.0011 230.08C54.3893 231.813 54.5704 232.667 54.9585 234.401C39.8991 237.817 32.2917 239.705 15.7833 244.078C11.2551 221.412 9.02979 210.803 3.75122 179.649C15.4986 175.586 21.1136 173.672 32.0589 170.101C33.0162 173.206 33.5079 174.707 34.4653 177.656C35.7332 176.854 36.3542 176.44 37.6221 175.638C38.0619 175.353 38.5794 175.017 39.1228 174.655C39.6662 174.293 40.2613 173.879 40.9341 173.387C41.6069 172.921 42.3055 172.404 43.1076 171.808C43.8839 171.239 44.7637 170.592 45.6693 169.894C47.5323 168.445 49.5506 167.022 51.6982 165.702C53.8459 164.382 56.1488 163.114 58.5552 161.924C60.9616 160.76 63.5492 159.647 66.1884 158.664C68.8536 157.655 71.6481 156.775 74.5203 155.999C77.0302 155.326 79.6178 154.834 82.2053 154.601C84.4306 154.394 86.7076 154.317 89.0105 154.42C90.8735 154.498 92.7366 154.679 94.729 154.99C96.3591 155.222 97.8081 155.507 98.9984 155.74C98.9984 155.74 103.915 156.956 104.82 157.189C105.778 157.422 106.683 157.629 107.563 157.784C108.495 157.965 109.374 158.095 110.177 158.146C111.16 158.224 112.014 158.172 112.79 158.043C113.359 157.939 113.851 157.81 114.265 157.706C114.756 157.577 115.145 157.422 115.481 157.292C115.895 157.111 116.231 156.93 116.516 156.749C116.801 156.568 117.034 156.387 117.241 156.206C117.81 155.714 118.094 155.455 118.664 154.964C118.069 152.195 117.784 150.798 117.189 147.977C129.376 145.597 135.69 144.536 149.352 142.621C150.335 147.02 150.827 149.168 151.836 153.333C153.13 158.767 153.699 163.942 153.544 169.195C153.414 173.956 152.716 178.64 151.422 183.582C150.309 187.825 148.783 192.172 146.687 197.27C144.85 201.72 142.831 206.067 140.735 210.647C139.959 212.329 139.571 213.157 138.821 214.839C138.458 215.641 138.277 216.029 137.915 216.832C137.553 217.634 137.372 218.048 137.035 218.85C135.198 223.275 132.869 229.122 130.929 235.358C128.936 241.75 127.539 247.753 126.685 253.756C125.65 260.794 125.34 267.754 125.676 275.103C126.064 283.202 127.332 291.818 129.402 300.927C131.084 308.249 131.912 312.027 133.542 319.815C110.642 322.481 99.8782 323.645 77.082 325.922L77.0561 325.87Z" fill="url(#paint21_linear_66_197)"/>
<path d="M77.4708 312.441C75.4008 301.677 74.7539 290.706 75.4525 279.553C76.0477 269.798 77.6778 259.707 80.2395 249.305C82.3871 240.533 85.2075 231.425 88.6231 222.11C91.34 214.71 94.445 207.154 97.9123 199.599C99.2837 196.623 99.9565 195.122 101.328 192.069C93.5394 191.551 89.7357 191.37 82.1542 191.112C80.55 191.034 79.101 191.034 77.6002 191.112C76.1512 191.163 74.7021 191.267 73.2531 191.422C71.8041 191.577 70.3551 191.784 68.9319 192.069C67.7676 192.276 66.6032 192.535 65.4646 192.819C65.1541 192.897 64.9989 192.949 64.6884 193.026C61.2728 193.932 58.323 195.847 55.9425 198.693C53.8725 201.151 52.2682 204.23 51.2332 207.801C50.2758 211.036 49.8101 214.684 49.8101 218.565C49.8101 222.395 50.2758 226.457 51.2332 230.675C51.4143 231.451 51.492 231.865 51.6731 232.641C38.813 235.669 32.2924 237.325 18.3715 241.077C14.1279 219.859 12.032 209.716 7.16748 181.512C16.6637 178.226 21.2178 176.673 30.1707 173.723C31.2316 177.061 31.7491 178.691 32.81 181.9C35.2681 180.347 36.4584 179.597 38.8907 178.07C39.3564 177.76 39.8739 177.423 40.4691 177.035C41.0383 176.647 41.6593 176.233 42.3321 175.742C43.0048 175.276 43.7294 174.732 44.5574 174.137C45.3595 173.568 46.2134 172.921 47.1449 172.223C48.9303 170.851 50.8709 169.506 52.941 168.238C54.9851 166.97 57.2363 165.78 59.5651 164.641C61.8938 163.528 64.4038 162.468 66.9913 161.484C69.6047 160.527 72.3216 159.647 75.1162 158.897C75.3749 158.819 75.5043 158.793 75.7372 158.741C77.9107 158.198 80.1618 157.81 82.413 157.577C84.5089 157.37 86.6824 157.318 88.8818 157.422C90.6672 157.499 92.4526 157.681 94.3674 157.965C95.8941 158.198 97.2396 158.457 98.3781 158.664C98.4298 158.664 98.4816 158.664 98.5333 158.69C98.5333 158.69 103.346 159.88 104.226 160.087C105.235 160.32 106.192 160.553 107.098 160.708C108.159 160.915 109.142 161.044 110.022 161.122C111.212 161.2 112.273 161.174 113.231 161.018C114.007 160.889 114.602 160.734 115.068 160.604C115.689 160.423 116.18 160.242 116.594 160.087C117.112 159.88 117.603 159.621 118.043 159.362C118.38 159.155 118.768 158.897 119.104 158.586C120.191 157.655 120.76 157.163 121.873 156.232C121.381 153.98 121.148 152.842 120.657 150.539C130.671 148.702 135.846 147.848 146.843 146.347C147.541 149.375 147.878 150.875 148.576 153.825C149.792 158.948 150.336 163.891 150.206 168.885C150.103 173.465 149.43 178.019 148.214 182.78C147.153 186.946 145.678 191.241 143.634 196.261C141.849 200.685 139.856 205.007 137.812 209.561C137.036 211.268 136.648 212.122 135.871 213.83C135.509 214.632 135.328 215.046 134.966 215.848C134.604 216.676 134.422 217.09 134.086 217.893C132.249 222.395 129.92 228.32 127.954 234.608C125.935 241.103 124.538 247.209 123.658 253.316C122.623 260.509 122.287 267.573 122.649 275.077C123.037 283.331 124.305 292.103 126.427 301.366C127.824 307.525 128.523 310.682 129.92 317.176C109.453 319.583 99.7236 320.669 79.3338 322.714C78.5576 318.574 78.1953 316.529 77.4191 312.545L77.4708 312.441Z" fill="#BB1338"/>
<path style="mix-blend-mode:screen" opacity="0.75" d="M146.869 146.295C135.872 147.822 130.697 148.65 120.683 150.487C121.175 152.79 121.408 153.928 121.899 156.18C120.787 157.137 120.243 157.603 119.131 158.534C118.768 158.845 118.38 159.129 118.07 159.31C117.63 159.569 117.138 159.828 116.621 160.035C116.207 160.216 115.715 160.397 115.094 160.552C114.602 160.682 114.033 160.837 113.257 160.966C112.3 161.148 111.239 161.173 110.048 161.07C109.169 160.992 108.185 160.863 107.124 160.656C106.219 160.475 105.261 160.268 104.252 160.035C103.347 159.828 98.5338 158.638 98.5597 158.638C98.508 158.638 98.4562 158.638 98.4045 158.612C97.266 158.405 95.9204 158.146 94.3938 157.913C92.479 157.629 90.6677 157.447 88.9082 157.37C86.7088 157.266 84.5353 157.318 82.4394 157.525C80.1882 157.732 77.9371 158.12 75.7635 158.689C75.5048 158.767 75.3754 158.793 75.1425 158.845C72.348 159.595 69.6311 160.449 67.0177 161.432C64.4043 162.39 61.9202 163.451 59.5914 164.589C57.2368 165.728 55.0115 166.944 52.9673 168.186C50.9232 169.454 48.9825 170.799 47.1713 172.171C46.2398 172.869 45.3859 173.516 44.5837 174.085C43.7816 174.68 43.0312 175.198 42.3585 175.69C41.6598 176.181 41.0647 176.595 40.4954 176.983C39.9003 177.371 39.3828 177.708 38.917 178.018C36.5106 179.545 35.2945 180.321 32.8363 181.848C31.7754 178.665 31.2579 177.035 30.197 173.671C21.2442 176.621 16.6642 178.148 7.19385 181.46C12.0584 209.664 14.1543 219.807 18.3979 241.025C32.3188 237.273 38.8394 235.617 51.6995 232.589C51.5183 231.813 51.4407 231.425 51.2596 230.623C50.3281 226.431 49.8364 222.369 49.8364 218.513C49.8364 214.606 50.3281 210.984 51.2596 207.749C52.2946 204.178 53.873 201.099 55.9689 198.641C58.3494 195.821 61.2992 193.88 64.7148 192.974C65.0253 192.897 65.1805 192.845 65.491 192.767C66.6295 192.483 67.7939 192.224 68.9583 192.017C70.3815 191.758 71.8305 191.551 73.2795 191.37C74.7285 191.215 76.1776 191.111 77.6266 191.06C79.1015 191.008 80.5764 191.008 82.1806 191.06C89.7621 191.292 93.5658 191.499 101.354 192.017C99.9829 195.044 99.3101 196.545 97.9387 199.547C94.4973 207.128 91.3664 214.658 88.6495 222.058C85.208 231.373 82.4135 240.481 80.2659 249.253C78.9462 254.609 77.9112 259.862 77.0832 265.011C90.1244 261.156 107.228 254.17 125.91 242.241C126.531 239.705 127.23 237.118 128.058 234.478C130.024 228.165 132.327 222.265 134.19 217.763C134.552 216.935 134.708 216.521 135.07 215.719C135.432 214.917 135.613 214.503 135.975 213.7C136.752 211.993 137.14 211.139 137.916 209.431C139.96 204.877 141.953 200.556 143.738 196.131C145.782 191.111 147.231 186.842 148.318 182.65C149.534 177.889 150.207 173.361 150.31 168.755C150.44 163.761 149.896 158.845 148.68 153.696C147.982 150.746 147.645 149.271 146.947 146.218L146.869 146.295Z" fill="#BB1338"/>
<path d="M79.9286 271.998C84.4309 238.412 102.311 197.399 102.311 197.399L101.327 192.095C99.9561 195.122 99.2833 196.623 97.9119 199.624C94.4705 207.206 91.3396 214.736 88.6227 222.136C85.1812 231.451 82.3867 240.559 80.2391 249.331C77.6774 259.759 76.0473 269.824 75.4521 279.579C74.7535 290.757 75.4004 301.703 77.4704 312.467C78.2467 316.452 78.6089 318.496 79.3852 322.636C80.6272 322.507 81.8433 322.377 83.0077 322.274C83.0077 322.274 75.4262 305.584 79.9286 272.024V271.998Z" fill="#BB1338"/>
<path d="M11.54 184.746L21.9937 240.041L18.3453 241.025C18.3453 241.025 8.77137 193.414 7.96924 185.988L11.54 184.746Z" fill="#BB1338"/>
<path d="M7.97035 185.988C17.4666 182.676 22.0207 181.123 30.9735 178.174C32.0344 181.434 32.5519 183.012 33.6128 186.143C36.071 184.616 37.2871 183.866 39.6935 182.339C40.1593 182.055 40.7027 181.718 41.2719 181.33C41.8412 180.968 42.4622 180.528 43.135 180.062C43.8077 179.597 44.5322 179.079 45.3602 178.484C46.1624 177.915 47.0163 177.294 47.9478 176.595C49.7332 175.25 51.6738 173.904 53.7439 172.688C55.788 171.446 58.0392 170.256 60.3679 169.143C62.6967 168.03 65.2066 166.995 67.7942 166.038C70.4076 165.081 73.1504 164.227 75.919 163.502C76.1778 163.45 76.3072 163.399 76.54 163.347C78.7394 162.804 80.9906 162.415 83.2418 162.208C85.3377 162.001 87.5371 161.976 89.7365 162.053C91.5219 162.131 93.3073 162.312 95.2479 162.597C96.7746 162.829 98.146 163.088 99.2845 163.295C99.3362 163.295 99.388 163.295 99.4397 163.321C99.4397 163.321 104.253 164.511 105.158 164.718C106.167 164.951 107.125 165.184 108.03 165.339C109.091 165.546 110.074 165.676 110.954 165.753C112.145 165.857 113.205 165.805 114.163 165.65C114.965 165.52 115.534 165.391 116.026 165.262C116.647 165.081 117.138 164.925 117.552 164.744C118.07 164.537 118.562 164.278 119.001 164.02C119.338 163.813 119.726 163.554 120.062 163.243C121.149 162.338 121.718 161.872 122.831 160.941C122.417 159.052 122.21 158.12 121.796 156.205C120.735 157.111 120.192 157.577 119.131 158.482C118.769 158.793 118.38 159.077 118.07 159.259C117.63 159.517 117.138 159.776 116.621 159.983C116.207 160.164 115.715 160.345 115.094 160.501C114.603 160.63 114.033 160.785 113.257 160.915C112.3 161.096 111.239 161.122 110.049 161.018C109.169 160.941 108.186 160.811 107.125 160.604C106.219 160.423 105.262 160.216 104.253 159.983C103.347 159.776 98.5341 158.586 98.56 158.586C98.5082 158.586 98.4565 158.586 98.4047 158.56C97.2662 158.353 95.9207 158.094 94.394 157.861C92.4793 157.577 90.668 157.396 88.9085 157.318C86.709 157.214 84.5355 157.266 82.4396 157.473C80.1885 157.68 77.9373 158.068 75.7638 158.638C75.505 158.715 75.3756 158.741 75.1428 158.793C72.3482 159.543 69.6313 160.397 67.0179 161.38C64.4045 162.338 61.9205 163.399 59.5917 164.537C57.237 165.676 55.0117 166.892 52.9676 168.134C50.9234 169.402 48.9828 170.747 47.1715 172.119C46.24 172.817 45.3861 173.464 44.584 174.033C43.7818 174.629 43.0315 175.146 42.3587 175.638C41.6601 176.129 41.0649 176.543 40.4957 176.931C39.9005 177.32 39.383 177.656 38.9173 177.966C36.5109 179.493 35.2947 180.269 32.8366 181.796C31.7757 178.613 31.2582 176.983 30.1973 173.619C21.2444 176.569 16.6645 178.096 7.19409 181.408C12.0587 209.612 14.1546 219.755 18.3981 240.973C18.3981 240.973 18.424 240.973 18.4499 240.973C14.4909 221.127 12.5244 211.553 8.0221 185.936L7.97035 185.988Z" fill="#BB1338"/>
<path d="M147.852 151.444C148.499 154.239 148.836 155.61 149.483 158.301C149.25 156.801 148.965 155.274 148.603 153.747C147.904 150.797 147.568 149.323 146.869 146.269C135.872 147.796 130.697 148.624 120.683 150.461C121.097 152.454 121.304 153.437 121.744 155.377C131.732 153.644 136.907 152.842 147.878 151.418L147.852 151.444Z" fill="#BB1338"/>
<path d="M127.436 305.895C128.419 310.293 128.911 312.519 129.894 317.099C129.946 317.099 129.946 317.099 129.997 317.099C128.626 310.682 127.953 307.577 126.556 301.47C126.841 302.945 127.125 304.42 127.462 305.895H127.436Z" fill="#BB1338"/>
<defs>
<linearGradient id="paint0_linear_66_197" x1="578.078" y1="326.175" x2="520.695" y2="3.05343" gradientUnits="userSpaceOnUse">
<stop stop-color="#FF6B8C"/>
<stop offset="0.385417" stop-color="#F6EDDC"/>
<stop offset="0.546875" stop-color="#F3E4D8"/>
<stop offset="0.703125" stop-color="#FFFFF0"/>
<stop offset="1" stop-color="#FF6B8C"/>
</linearGradient>
<linearGradient id="paint1_linear_66_197" x1="475.699" y1="350.794" x2="415.114" y2="9.63548" gradientUnits="userSpaceOnUse">
<stop stop-color="#F7F9F4"/>
<stop offset="0.14" stop-color="#FFFFFD"/>
<stop offset="0.23" stop-color="#FDF7F5"/>
<stop offset="0.35" stop-color="#F8E1E0"/>
<stop offset="0.51" stop-color="#F1BEBE"/>
<stop offset="0.55" stop-color="#F0B6B6"/>
<stop offset="0.61" stop-color="#EBB1B1"/>
<stop offset="0.68" stop-color="#DFA4A4"/>
<stop offset="0.75" stop-color="#CB8F8F"/>
<stop offset="0.82" stop-color="#AF7272"/>
<stop offset="0.89" stop-color="#8B4B4B"/>
<stop offset="0.96" stop-color="#601D1D"/>
<stop offset="1" stop-color="#440000"/>
</linearGradient>
<radialGradient id="paint2_radial_66_197" cx="0" cy="0" r="1" gradientUnits="userSpaceOnUse" gradientTransform="translate(450.49 200) rotate(-10.07) scale(42.772 162.961)">
<stop stop-color="#2B0004"/>
<stop offset="0.2" stop-color="#2F0003"/>
<stop offset="0.4" stop-color="#3B0003"/>
<stop offset="0.6" stop-color="#500002"/>
<stop offset="0.81" stop-color="#6C001A"/>
<stop offset="1" stop-color="#BB1338"/>
</radialGradient>
<linearGradient id="paint3_linear_66_197" x1="143.865" y1="409.724" x2="84.8129" y2="77.2021" gradientUnits="userSpaceOnUse">
<stop stop-color="#FF6B8C"/>
<stop offset="0.34375" stop-color="#F6EDDC"/>
<stop offset="0.432292" stop-color="#F5EBDB"/>
<stop offset="0.671875" stop-color="#F3E4D8"/>
<stop offset="1" stop-color="#FF6B8C"/>
</linearGradient>
<linearGradient id="paint4_linear_66_197" x1="246.48" y1="386.656" x2="187.51" y2="54.5923" gradientUnits="userSpaceOnUse">
<stop stop-color="#F7F9F4"/>
<stop offset="0.14" stop-color="#FFFFFD"/>
<stop offset="0.23" stop-color="#FDF7F5"/>
<stop offset="0.35" stop-color="#F8E1E0"/>
<stop offset="0.51" stop-color="#F1BEBE"/>
<stop offset="0.55" stop-color="#F0B6B6"/>
<stop offset="0.61" stop-color="#EBB1B1"/>
<stop offset="0.68" stop-color="#DFA4A4"/>
<stop offset="0.75" stop-color="#CB8F8F"/>
<stop offset="0.82" stop-color="#AF7272"/>
<stop offset="0.89" stop-color="#8B4B4B"/>
<stop offset="0.96" stop-color="#601D1D"/>
<stop offset="1" stop-color="#440000"/>
</linearGradient>
<radialGradient id="paint5_radial_66_197" cx="0" cy="0" r="1" gradientUnits="userSpaceOnUse" gradientTransform="translate(213.338 198.404) rotate(-10.07) scale(39.434 164.834)">
<stop stop-color="#2B0008"/>
<stop offset="0.2" stop-color="#2F000B"/>
<stop offset="0.4" stop-color="#3B000B"/>
<stop offset="0.6" stop-color="#540718"/>
<stop offset="0.81" stop-color="#770E25"/>
<stop offset="1" stop-color="#BB1338"/>
</radialGradient>
<linearGradient id="paint6_linear_66_197" x1="365.454" y1="385.72" x2="299.412" y2="13.8365" gradientUnits="userSpaceOnUse">
<stop stop-color="#FF6B8C"/>
<stop offset="0.255071" stop-color="#F5EBDB"/>
<stop offset="0.793256" stop-color="white"/>
<stop offset="1" stop-color="#FF6B8C"/>
</linearGradient>
<radialGradient id="paint7_radial_66_197" cx="0" cy="0" r="1" gradientUnits="userSpaceOnUse" gradientTransform="translate(339.196 291.828) rotate(-10.08) scale(88.4161 88.4161)">
<stop stop-color="#B56084"/>
<stop offset="0.02" stop-color="#B86689"/>
<stop offset="0.19" stop-color="#CD94AC"/>
<stop offset="0.36" stop-color="#DFBBCA"/>
<stop offset="0.53" stop-color="#EDD8E1"/>
<stop offset="0.69" stop-color="#F7EDF1"/>
<stop offset="0.85" stop-color="#FDFAFB"/>
<stop offset="1" stop-color="white"/>
</radialGradient>
<radialGradient id="paint8_radial_66_197" cx="0" cy="0" r="1" gradientUnits="userSpaceOnUse" gradientTransform="translate(347.465 285.907) rotate(-10.07) scale(88.4161)">
<stop stop-color="#B56084"/>
<stop offset="0.36" stop-color="#DFBBCA"/>
<stop offset="0.53" stop-color="#EDD8E1"/>
<stop offset="0.69" stop-color="#F7EDF1"/>
<stop offset="0.85" stop-color="#FDFAFB"/>
<stop offset="1" stop-color="white"/>
</radialGradient>
<radialGradient id="paint9_radial_66_197" cx="0" cy="0" r="1" gradientUnits="userSpaceOnUse" gradientTransform="translate(367.858 195.935) rotate(-10.07) scale(88.4161 88.4161)">
<stop stop-color="#B56084"/>
<stop offset="0.02" stop-color="#B86689"/>
<stop offset="0.19" stop-color="#CD94AC"/>
<stop offset="0.36" stop-color="#DFBBCA"/>
<stop offset="0.53" stop-color="#EDD8E1"/>
<stop offset="0.69" stop-color="#F7EDF1"/>
<stop offset="0.85" stop-color="#FDFAFB"/>
<stop offset="1" stop-color="white"/>
</radialGradient>
<radialGradient id="paint10_radial_66_197" cx="0" cy="0" r="1" gradientUnits="userSpaceOnUse" gradientTransform="translate(315.924 146.499) rotate(-10.07) scale(88.4161)">
<stop stop-color="#B56084"/>
<stop offset="0.02" stop-color="#B86689"/>
<stop offset="0.19" stop-color="#CD94AC"/>
<stop offset="0.36" stop-color="#DFBBCA"/>
<stop offset="0.53" stop-color="#EDD8E1"/>
<stop offset="0.69" stop-color="#F7EDF1"/>
<stop offset="0.85" stop-color="#FDFAFB"/>
<stop offset="1" stop-color="white"/>
</radialGradient>
<radialGradient id="paint11_radial_66_197" cx="0" cy="0" r="1" gradientUnits="userSpaceOnUse" gradientTransform="translate(265.45 182.452) rotate(-10.08) scale(88.4161)">
<stop stop-color="#B56084"/>
<stop offset="0.02" stop-color="#B86689"/>
<stop offset="0.19" stop-color="#CD94AC"/>
<stop offset="0.36" stop-color="#DFBBCA"/>
<stop offset="0.53" stop-color="#EDD8E1"/>
<stop offset="0.69" stop-color="#F7EDF1"/>
<stop offset="0.85" stop-color="#FDFAFB"/>
<stop offset="1" stop-color="white"/>
</radialGradient>
<radialGradient id="paint12_radial_66_197" cx="0" cy="0" r="1" gradientUnits="userSpaceOnUse" gradientTransform="translate(375.103 135.976) rotate(-10.07) scale(88.4161 88.4161)">
<stop stop-color="#B56084"/>
<stop offset="0.02" stop-color="#B86689"/>
<stop offset="0.19" stop-color="#CD94AC"/>
<stop offset="0.36" stop-color="#DFBBCA"/>
<stop offset="0.53" stop-color="#EDD8E1"/>
<stop offset="0.69" stop-color="#F7EDF1"/>
<stop offset="0.85" stop-color="#FDFAFB"/>
<stop offset="1" stop-color="white"/>
</radialGradient>
<linearGradient id="paint13_linear_66_197" x1="282.744" y1="164.596" x2="313.997" y2="167.587" gradientUnits="userSpaceOnUse">
<stop stop-color="#FF7301"/>
<stop offset="1" stop-color="#421500"/>
</linearGradient>
<linearGradient id="paint14_linear_66_197" x1="355.258" y1="316.932" x2="306.288" y2="59.9829" gradientUnits="userSpaceOnUse">
<stop stop-color="#E0A300"/>
<stop offset="0.08" stop-color="#FFC524"/>
<stop offset="0.15" stop-color="#FFD759"/>
<stop offset="0.41" stop-color="#FFF4A5"/>
<stop offset="0.42" stop-color="#FEF09F"/>
<stop offset="0.44" stop-color="#FCE58F"/>
<stop offset="0.46" stop-color="#F9D474"/>
<stop offset="0.48" stop-color="#F4BC4E"/>
<stop offset="0.5" stop-color="#EE9E1F"/>
<stop offset="0.52" stop-color="#EB8A00"/>
<stop offset="0.56" stop-color="#AD4300"/>
<stop offset="0.61" stop-color="#6E3500"/>
<stop offset="0.65" stop-color="#E09D00"/>
<stop offset="0.66" stop-color="#E7AA16"/>
<stop offset="0.67" stop-color="#F1BD36"/>
<stop offset="0.68" stop-color="#F8CB4E"/>
<stop offset="0.69" stop-color="#FFD761"/>
<stop offset="0.73" stop-color="#FFD65F"/>
<stop offset="0.75" stop-color="#FFD558"/>
<stop offset="0.76" stop-color="#FFCF3B"/>
<stop offset="0.77" stop-color="#FFCB29"/>
<stop offset="0.78" stop-color="#FBC425"/>
<stop offset="0.8" stop-color="#F0B31A"/>
<stop offset="0.81" stop-color="#DE9708"/>
<stop offset="0.82" stop-color="#DD9B15"/>
<stop offset="0.83" stop-color="#EFC24B"/>
<stop offset="0.84" stop-color="#FADA6B"/>
<stop offset="0.85" stop-color="#FDE072"/>
<stop offset="0.86" stop-color="#FEE275"/>
<stop offset="0.94" stop-color="#FEF3C6"/>
</linearGradient>
<linearGradient id="paint15_linear_66_197" x1="235.902" y1="213.071" x2="427.156" y2="179.107" gradientUnits="userSpaceOnUse">
<stop stop-color="#E0A300"/>
<stop offset="0.08" stop-color="#FFC524"/>
<stop offset="0.15" stop-color="#FFD759"/>
<stop offset="0.41" stop-color="#FFF4A5"/>
<stop offset="0.42" stop-color="#FEF09F"/>
<stop offset="0.44" stop-color="#FCE58F"/>
<stop offset="0.46" stop-color="#F9D474"/>
<stop offset="0.48" stop-color="#F4BC4E"/>
<stop offset="0.5" stop-color="#EE9E1F"/>
<stop offset="0.52" stop-color="#EB8A00"/>
<stop offset="0.56" stop-color="#AD4300"/>
<stop offset="0.61" stop-color="#6E3500"/>
<stop offset="0.65" stop-color="#E09D00"/>
<stop offset="0.66" stop-color="#E7AA16"/>
<stop offset="0.67" stop-color="#F1BD36"/>
<stop offset="0.68" stop-color="#F8CB4E"/>
<stop offset="0.69" stop-color="#FFD761"/>
<stop offset="0.73" stop-color="#FFD65F"/>
<stop offset="0.75" stop-color="#FFD558"/>
<stop offset="0.76" stop-color="#FFCF3B"/>
<stop offset="0.77" stop-color="#FFCB29"/>
<stop offset="0.78" stop-color="#FBC425"/>
<stop offset="0.8" stop-color="#F0B31A"/>
<stop offset="0.81" stop-color="#DE9708"/>
<stop offset="0.82" stop-color="#DD9B15"/>
<stop offset="0.83" stop-color="#EFC24B"/>
<stop offset="0.84" stop-color="#FADA6B"/>
<stop offset="0.85" stop-color="#FDE072"/>
<stop offset="0.86" stop-color="#FEE275"/>
<stop offset="0.94" stop-color="#FEF3C6"/>
</linearGradient>
<linearGradient id="paint16_linear_66_197" x1="544.794" y1="121.292" x2="570.86" y2="123.785" gradientUnits="userSpaceOnUse">
<stop stop-color="#FF7301"/>
<stop offset="1" stop-color="#421500"/>
</linearGradient>
<linearGradient id="paint17_linear_66_197" x1="603.607" y1="246.054" x2="562.02" y2="27.8411" gradientUnits="userSpaceOnUse">
<stop stop-color="#E0A300"/>
<stop offset="0.08" stop-color="#FFC524"/>
<stop offset="0.15" stop-color="#FFD759"/>
<stop offset="0.41" stop-color="#FFF4A5"/>
<stop offset="0.42" stop-color="#FEF09F"/>
<stop offset="0.44" stop-color="#FCE58F"/>
<stop offset="0.46" stop-color="#F9D474"/>
<stop offset="0.48" stop-color="#F4BC4E"/>
<stop offset="0.5" stop-color="#EE9E1F"/>
<stop offset="0.52" stop-color="#EB8A00"/>
<stop offset="0.56" stop-color="#AD4300"/>
<stop offset="0.61" stop-color="#6E3500"/>
<stop offset="0.65" stop-color="#E09D00"/>
<stop offset="0.66" stop-color="#E7AA16"/>
<stop offset="0.67" stop-color="#F1BD36"/>
<stop offset="0.68" stop-color="#F8CB4E"/>
<stop offset="0.69" stop-color="#FFD761"/>
<stop offset="0.73" stop-color="#FFD65F"/>
<stop offset="0.75" stop-color="#FFD558"/>
<stop offset="0.76" stop-color="#FFCF3B"/>
<stop offset="0.77" stop-color="#FFCB29"/>
<stop offset="0.78" stop-color="#FBC425"/>
<stop offset="0.8" stop-color="#F0B31A"/>
<stop offset="0.81" stop-color="#DE9708"/>
<stop offset="0.82" stop-color="#DD9B15"/>
<stop offset="0.83" stop-color="#EFC24B"/>
<stop offset="0.84" stop-color="#FADA6B"/>
<stop offset="0.85" stop-color="#FDE072"/>
<stop offset="0.86" stop-color="#FEE275"/>
<stop offset="0.94" stop-color="#FEF3C6"/>
</linearGradient>
<linearGradient id="paint18_linear_66_197" x1="505.583" y1="157.689" x2="661.806" y2="129.946" gradientUnits="userSpaceOnUse">
<stop stop-color="#E0A300"/>
<stop offset="0.08" stop-color="#FFC524"/>
<stop offset="0.15" stop-color="#FFD759"/>
<stop offset="0.41" stop-color="#FFF4A5"/>
<stop offset="0.42" stop-color="#FEF09F"/>
<stop offset="0.44" stop-color="#FCE58F"/>
<stop offset="0.46" stop-color="#F9D474"/>
<stop offset="0.48" stop-color="#F4BC4E"/>
<stop offset="0.5" stop-color="#EE9E1F"/>
<stop offset="0.52" stop-color="#EB8A00"/>
<stop offset="0.56" stop-color="#AD4300"/>
<stop offset="0.61" stop-color="#6E3500"/>
<stop offset="0.65" stop-color="#E09D00"/>
<stop offset="0.66" stop-color="#E7AA16"/>
<stop offset="0.67" stop-color="#F1BD36"/>
<stop offset="0.68" stop-color="#F8CB4E"/>
<stop offset="0.69" stop-color="#FFD761"/>
<stop offset="0.73" stop-color="#FFD65F"/>
<stop offset="0.75" stop-color="#FFD558"/>
<stop offset="0.76" stop-color="#FFCF3B"/>
<stop offset="0.77" stop-color="#FFCB29"/>
<stop offset="0.78" stop-color="#FBC425"/>
<stop offset="0.8" stop-color="#F0B31A"/>
<stop offset="0.81" stop-color="#DE9708"/>
<stop offset="0.82" stop-color="#DD9B15"/>
<stop offset="0.83" stop-color="#EFC24B"/>
<stop offset="0.84" stop-color="#FADA6B"/>
<stop offset="0.85" stop-color="#FDE072"/>
<stop offset="0.86" stop-color="#FEE275"/>
<stop offset="0.94" stop-color="#FEF3C6"/>
</linearGradient>
<linearGradient id="paint19_linear_66_197" x1="55.1358" y1="214.793" x2="78.1525" y2="216.986" gradientUnits="userSpaceOnUse">
<stop stop-color="#FF7301"/>
<stop offset="1" stop-color="#421500"/>
</linearGradient>
<linearGradient id="paint20_linear_66_197" x1="108.96" y1="330.708" x2="72.4454" y2="139.108" gradientUnits="userSpaceOnUse">
<stop stop-color="#E0A300"/>
<stop offset="0.08" stop-color="#FFC524"/>
<stop offset="0.15" stop-color="#FFD759"/>
<stop offset="0.41" stop-color="#FFF4A5"/>
<stop offset="0.42" stop-color="#FEF09F"/>
<stop offset="0.44" stop-color="#FCE58F"/>
<stop offset="0.46" stop-color="#F9D474"/>
<stop offset="0.48" stop-color="#F4BC4E"/>
<stop offset="0.5" stop-color="#EE9E1F"/>
<stop offset="0.52" stop-color="#EB8A00"/>
<stop offset="0.56" stop-color="#AD4300"/>
<stop offset="0.61" stop-color="#6E3500"/>
<stop offset="0.65" stop-color="#E09D00"/>
<stop offset="0.66" stop-color="#E7AA16"/>
<stop offset="0.67" stop-color="#F1BD36"/>
<stop offset="0.68" stop-color="#F8CB4E"/>
<stop offset="0.69" stop-color="#FFD761"/>
<stop offset="0.73" stop-color="#FFD65F"/>
<stop offset="0.75" stop-color="#FFD558"/>
<stop offset="0.76" stop-color="#FFCF3B"/>
<stop offset="0.77" stop-color="#FFCB29"/>
<stop offset="0.78" stop-color="#FBC425"/>
<stop offset="0.8" stop-color="#F0B31A"/>
<stop offset="0.81" stop-color="#DE9708"/>
<stop offset="0.82" stop-color="#DD9B15"/>
<stop offset="0.83" stop-color="#EFC24B"/>
<stop offset="0.84" stop-color="#FADA6B"/>
<stop offset="0.85" stop-color="#FDE072"/>
<stop offset="0.86" stop-color="#FEE275"/>
<stop offset="0.94" stop-color="#FEF3C6"/>
</linearGradient>
<linearGradient id="paint21_linear_66_197" x1="16.7058" y1="253.075" x2="164.955" y2="226.748" gradientUnits="userSpaceOnUse">
<stop stop-color="#E0A300"/>
<stop offset="0.08" stop-color="#FFC524"/>
<stop offset="0.15" stop-color="#FFD759"/>
<stop offset="0.41" stop-color="#FFF4A5"/>
<stop offset="0.42" stop-color="#FEF09F"/>
<stop offset="0.44" stop-color="#FCE58F"/>
<stop offset="0.46" stop-color="#F9D474"/>
<stop offset="0.48" stop-color="#F4BC4E"/>
<stop offset="0.5" stop-color="#EE9E1F"/>
<stop offset="0.52" stop-color="#EB8A00"/>
<stop offset="0.56" stop-color="#AD4300"/>
<stop offset="0.61" stop-color="#6E3500"/>
<stop offset="0.65" stop-color="#E09D00"/>
<stop offset="0.66" stop-color="#E7AA16"/>
<stop offset="0.67" stop-color="#F1BD36"/>
<stop offset="0.68" stop-color="#F8CB4E"/>
<stop offset="0.69" stop-color="#FFD761"/>
<stop offset="0.73" stop-color="#FFD65F"/>
<stop offset="0.75" stop-color="#FFD558"/>
<stop offset="0.76" stop-color="#FFCF3B"/>
<stop offset="0.77" stop-color="#FFCB29"/>
<stop offset="0.78" stop-color="#FBC425"/>
<stop offset="0.8" stop-color="#F0B31A"/>
<stop offset="0.81" stop-color="#DE9708"/>
<stop offset="0.82" stop-color="#DD9B15"/>
<stop offset="0.83" stop-color="#EFC24B"/>
<stop offset="0.84" stop-color="#FADA6B"/>
<stop offset="0.85" stop-color="#FDE072"/>
<stop offset="0.86" stop-color="#FEE275"/>
<stop offset="0.94" stop-color="#FEF3C6"/>
</linearGradient>
</defs>
</svg>
